<svg version="1.1" id="Layer_1" xmlns="http://www.w3.org/2000/svg" xmlns:xlink="http://www.w3.org/1999/xlink" x="0px" y="0px"
	 width="100%" viewBox="0 0 1920 1920" enable-background="new 0 0 1920 1920" xml:space="preserve">
<path fill="#FFFFFF" opacity="1.000000" stroke="none" 
	d="
M1074.000000,1921.000000 
	C716.000000,1921.000000 358.500000,1921.000000 1.000000,1921.000000 
	C1.000000,1281.000000 1.000000,641.000000 1.000000,1.000000 
	C641.000000,1.000000 1281.000000,1.000000 1921.000000,1.000000 
	C1921.000000,641.000000 1921.000000,1281.000000 1921.000000,1921.000000 
	C1638.833374,1921.000000 1356.666626,1921.000000 1074.000000,1921.000000 
M1721.363525,1471.429932 
	C1722.835938,1470.954590 1724.308350,1470.479370 1725.780762,1470.004150 
	C1724.922119,1469.242065 1724.063354,1468.479980 1723.406372,1466.923706 
	C1723.998657,1463.067993 1725.267578,1459.173828 1725.050293,1455.364258 
	C1724.505127,1445.811401 1718.234741,1440.436401 1710.090698,1436.218872 
	C1716.368896,1432.286743 1722.806763,1428.585693 1728.895996,1424.380005 
	C1749.260742,1410.315552 1767.253174,1393.616821 1782.012451,1373.750732 
	C1798.274536,1351.861816 1809.996704,1327.526489 1815.925903,1300.915771 
	C1819.216064,1286.149170 1820.375977,1270.867554 1821.845215,1255.754883 
	C1822.447754,1249.556763 1821.600098,1243.163696 1820.938843,1236.909302 
	C1819.932617,1227.392944 1819.101196,1217.794556 1817.108276,1208.463501 
	C1815.072998,1198.934448 1811.972290,1189.603882 1808.899536,1180.331787 
	C1803.059937,1162.711060 1793.725342,1146.817017 1783.054932,1131.810059 
	C1773.636108,1118.563477 1762.281860,1107.013062 1749.976929,1096.249634 
	C1730.201050,1078.951294 1707.774536,1066.422363 1683.234741,1057.756348 
	C1661.691406,1050.148560 1639.271973,1046.382324 1616.355347,1047.168213 
	C1610.269287,1047.376953 1608.149170,1044.737061 1605.921021,1039.842896 
	C1602.163818,1031.590576 1598.360840,1023.097168 1592.962646,1015.919312 
	C1586.039917,1006.714294 1577.935059,998.276611 1569.590210,990.291504 
	C1557.494263,978.716980 1542.880859,970.818909 1527.253906,965.121765 
	C1509.627197,958.695557 1491.204956,956.891357 1472.492432,956.949036 
	C1423.670288,957.099609 1374.847290,956.998657 1325.829712,956.078613 
	C1325.819458,930.147644 1325.809204,904.216614 1326.719727,878.110291 
	C1330.023071,877.807068 1333.330933,877.546692 1336.628906,877.193481 
	C1354.232788,875.307556 1370.983154,870.167847 1388.046997,863.798462 
	C1388.367676,863.545044 1388.688354,863.291687 1389.460938,862.572144 
	C1390.274292,862.294312 1391.087646,862.016541 1392.243652,862.346741 
	C1393.723511,862.938599 1396.317261,864.276123 1396.501465,864.000793 
	C1397.655396,862.276917 1398.271851,860.193298 1399.488770,857.737000 
	C1400.869751,857.107666 1402.250610,856.478333 1404.417969,855.991455 
	C1412.451050,857.689148 1416.816772,854.839355 1417.468506,847.236633 
	C1417.673218,847.170471 1417.877808,847.104309 1418.633179,847.315430 
	C1419.501465,847.649475 1420.789307,848.528320 1421.172729,848.232910 
	C1424.836792,845.410400 1432.436646,848.798279 1432.908325,840.886414 
	C1432.928223,840.553772 1434.112427,840.401978 1434.552246,839.963501 
	C1436.301270,838.219177 1437.827026,836.222534 1439.713379,834.653503 
	C1441.242676,833.381531 1443.750244,831.322937 1444.814941,831.811584 
	C1448.475952,833.491943 1448.903564,832.660156 1448.371826,829.111023 
	C1448.150757,827.635742 1449.074463,825.989014 1449.269897,825.228271 
	C1452.239868,824.233765 1454.599365,823.443665 1457.110840,822.602722 
	C1456.280884,819.266296 1455.607422,816.558838 1455.032837,813.354309 
	C1455.443726,813.076660 1455.854614,812.799011 1456.922607,812.919312 
	C1460.378906,816.678406 1461.597900,810.229980 1465.490967,812.301941 
	C1464.124268,808.958130 1463.256836,806.835815 1462.668701,804.078064 
	C1464.019775,802.680969 1465.370728,801.283813 1467.529175,800.221069 
	C1469.464722,800.479919 1471.399048,800.951172 1473.336060,800.962769 
	C1485.223633,801.033752 1497.111938,801.000793 1509.133179,801.748657 
	C1510.849731,802.498596 1512.552002,803.832336 1514.285889,803.874939 
	C1517.731445,803.959595 1521.187622,803.192566 1524.651489,803.027710 
	C1533.432861,802.610046 1542.224731,802.398193 1551.002441,801.921326 
	C1552.285645,801.851562 1554.576416,800.824707 1554.602905,800.168274 
	C1554.844849,794.163086 1559.109131,795.013123 1562.871460,795.011658 
	C1568.460083,795.009460 1573.605591,794.171570 1577.378906,789.317566 
	C1578.287720,788.148315 1580.238281,787.804626 1581.683838,787.032471 
	C1583.475586,786.075317 1585.301514,785.161926 1587.004272,784.062012 
	C1590.812256,781.602478 1593.550659,776.857666 1599.392944,778.823181 
	C1600.183472,779.089111 1602.823242,776.842285 1602.680298,776.434265 
	C1601.369019,772.693604 1603.590576,772.331848 1606.317017,771.637207 
	C1607.962402,771.218018 1609.271729,769.599426 1610.825073,768.676392 
	C1615.229858,766.059204 1619.759033,763.642090 1624.068970,760.880249 
	C1625.336060,760.068298 1626.614014,758.479553 1626.884033,757.056519 
	C1627.647583,753.033081 1633.541992,747.611694 1637.510986,746.840210 
	C1639.494873,746.454529 1642.783325,744.270508 1642.688354,743.132935 
	C1642.207642,737.372009 1644.457153,733.299622 1648.542847,729.639832 
	C1650.296753,728.068665 1651.109863,724.718628 1652.966064,724.135010 
	C1657.491699,722.711975 1659.642578,720.215698 1659.303223,715.684326 
	C1666.037964,714.248474 1668.264648,710.893982 1666.649170,703.755615 
	C1665.879150,700.352234 1666.578003,698.915588 1669.982666,699.020264 
	C1673.057739,699.114807 1673.968750,697.565674 1674.053223,694.711548 
	C1674.234619,688.585266 1674.458252,682.442444 1675.149048,676.361450 
	C1675.326172,674.803162 1677.267334,673.414612 1678.473511,672.013000 
	C1679.594727,670.710144 1681.704834,669.576965 1681.831787,668.224060 
	C1682.257080,663.687012 1682.574341,658.987671 1681.831543,654.534180 
	C1681.014404,649.635559 1680.581787,645.103821 1683.177246,640.642944 
	C1683.640381,639.847107 1683.774902,638.739014 1683.733765,637.789185 
	C1683.190063,625.203308 1682.694336,612.613525 1681.931519,600.040161 
	C1681.717407,596.510010 1680.378418,593.053589 1680.097656,589.520264 
	C1679.822021,586.053894 1679.970825,582.497437 1680.428101,579.046143 
	C1680.831299,576.002869 1682.177124,573.081482 1682.546021,570.038269 
	C1682.659058,569.106201 1681.113037,567.563232 1679.978638,566.996033 
	C1678.635376,566.324341 1676.915771,566.405457 1676.224365,566.296570 
	C1674.719238,561.750488 1674.510376,556.383118 1671.721680,553.787231 
	C1667.338623,549.707031 1665.998657,545.695984 1666.944336,540.260803 
	C1667.457031,537.313965 1666.390747,535.194519 1663.192505,535.094116 
	C1660.090210,534.996582 1658.728394,533.151184 1659.120972,530.641663 
	C1659.895996,525.686279 1657.128662,522.988464 1653.748779,520.381470 
	C1652.862061,519.697510 1651.649902,518.763672 1651.551025,517.841370 
	C1650.999634,512.687439 1646.170898,511.087616 1643.593384,507.665314 
	C1642.528198,506.251068 1641.656494,503.966949 1642.001343,502.358063 
	C1642.861084,498.346100 1641.558960,496.005890 1637.708862,495.168182 
	C1636.216553,494.843475 1634.789429,493.445221 1633.701050,492.211151 
	C1631.867554,490.132385 1630.328003,487.794342 1628.664795,485.565369 
	C1628.239746,485.878479 1627.814575,486.191589 1627.389404,486.504700 
	C1626.932617,481.144318 1624.676025,478.629639 1618.914062,479.836395 
	C1616.046753,480.436890 1613.715820,479.093933 1614.757935,475.134399 
	C1615.548218,472.131744 1613.972168,470.668579 1610.892456,471.180267 
	C1606.942017,471.836578 1603.840942,470.789764 1601.560791,467.310425 
	C1599.524292,464.202850 1596.778076,462.624908 1592.747070,462.845123 
	C1590.689087,462.957520 1587.674927,462.077209 1586.604980,460.571320 
	C1583.764771,456.573547 1579.597778,456.129364 1575.564331,454.954834 
	C1574.057983,454.516205 1571.495728,453.747803 1571.425537,452.952515 
	C1570.813477,446.010986 1565.470093,447.277649 1561.345703,447.090637 
	C1555.578491,446.829132 1549.368286,449.084229 1544.874756,443.285950 
	C1544.589355,442.917664 1543.612549,443.074738 1542.955444,443.006622 
	C1536.015503,442.287079 1529.083252,441.478424 1522.132935,440.878754 
	C1513.791138,440.158966 1505.433960,439.079834 1497.083252,439.077576 
	C1161.468994,438.986572 825.854858,438.988586 490.240662,439.077606 
	C483.115326,439.079498 475.989441,440.228699 468.865601,440.863007 
	C465.528900,441.160126 462.197845,441.521240 458.860565,441.811401 
	C458.391846,441.852173 457.700745,441.826752 457.452667,441.538910 
	C453.816650,437.318848 449.324066,439.645203 445.019836,439.539948 
	C441.335907,439.449860 439.369202,440.117249 438.754059,443.939636 
	C438.580841,445.015900 437.374481,446.605560 436.443420,446.759583 
	C432.883453,447.348633 429.143341,448.115997 425.651825,447.596985 
	C417.520050,446.388214 416.329834,446.838837 414.470123,453.609802 
	C411.289062,455.259308 408.846710,456.814301 406.198822,457.837463 
	C401.006317,459.843872 397.138641,465.794189 390.261932,463.190063 
	C389.629425,462.950562 387.143585,465.057770 387.202576,465.965851 
	C387.513184,470.748688 383.860535,470.572418 381.008881,472.147186 
	C376.384125,474.701050 372.352539,478.335236 368.117371,481.574524 
	C367.829987,481.794342 368.109467,482.683685 367.829163,482.995270 
	C364.254028,486.969452 361.280701,492.787628 356.834442,494.328644 
	C351.858765,496.053162 350.983368,498.692047 350.480988,502.912872 
	C344.183075,501.911621 342.940857,505.944916 342.589020,510.585846 
	C337.292419,510.298279 337.329651,510.315308 334.814758,515.817139 
	C334.446228,516.623413 333.554321,517.728516 332.859833,517.761841 
	C327.746155,518.007141 325.715454,521.120361 325.462738,525.194153 
	C320.092926,526.077942 315.047913,528.065918 310.395966,527.381592 
	C304.545135,526.520996 302.358490,528.121155 302.538361,533.414551 
	C301.988342,533.655396 301.845184,533.748047 301.689178,533.782166 
	C295.553070,535.124023 287.003052,531.450623 285.154327,541.743225 
	C285.114716,541.963989 284.597504,542.074829 284.342438,542.284790 
	C282.115692,544.117676 280.010925,546.127563 277.637054,547.742676 
	C276.096832,548.790649 274.205109,549.780518 272.406525,549.911255 
	C264.310608,550.499939 264.103210,550.532288 262.069214,558.000244 
	C259.410431,558.000244 256.609772,558.059204 253.812637,557.985718 
	C250.079193,557.887634 247.401215,559.039673 246.379929,563.065918 
	C246.056702,564.340271 244.854446,566.252380 243.891205,566.356079 
	C239.503342,566.828491 238.487106,569.497498 238.663376,571.485535 
	C234.919724,575.090881 232.093216,577.812988 229.266693,580.535095 
	C229.585632,581.025452 229.904556,581.515747 230.223495,582.006104 
	C228.423477,582.006104 226.544907,581.674500 224.840515,582.078186 
	C221.718475,582.817566 217.758453,583.138916 215.884750,585.207703 
	C213.735077,587.581177 212.309433,590.397400 209.048477,591.728394 
	C208.064758,592.129822 207.717957,593.908020 206.870041,594.871338 
	C205.743988,596.150757 204.390045,597.226685 203.175446,598.431824 
	C201.547806,600.046692 199.929947,601.673462 198.360962,603.344971 
	C195.080475,606.839783 191.836502,610.368774 188.565689,613.872742 
	C188.474274,613.970642 188.249191,613.950256 188.084732,613.972534 
	C184.463074,614.463440 182.537903,616.564758 181.881271,620.131836 
	C181.750931,620.839905 180.744888,621.595642 179.969574,621.942383 
	C174.636444,624.328125 172.965012,627.151001 174.573303,632.921509 
	C175.617523,636.668091 174.306122,638.337708 170.916306,638.815308 
	C167.833405,639.249634 167.273590,641.563232 165.685089,643.672668 
	C162.712204,647.620361 159.127243,652.178772 155.278244,654.383667 
	C151.292068,656.667236 150.013962,658.563538 150.001450,662.437683 
	C149.994049,664.732178 150.000092,667.026672 150.000092,669.130432 
	C142.676086,671.631348 141.653732,673.757629 142.593811,681.626709 
	C142.753113,682.960205 141.284134,684.841003 140.077042,685.920837 
	C135.958206,689.605469 131.608459,693.031189 127.391068,696.607849 
	C127.087593,696.865295 127.070549,697.537903 127.037827,698.025391 
	C126.608406,704.421631 126.200172,710.819336 125.754974,717.706299 
	C120.982452,717.874207 118.150795,720.536316 118.628571,726.409729 
	C118.809349,728.632080 117.958359,730.938354 117.533119,733.471802 
	C112.106674,734.441345 109.224884,737.014160 110.478401,743.377686 
	C111.222679,747.156189 110.302368,751.289368 109.922668,755.243103 
	C109.831245,756.195007 109.044258,757.740234 108.357628,757.872375 
	C101.781830,759.138428 101.973167,764.069458 101.990463,769.019531 
	C102.023346,778.433228 102.000000,787.847168 102.000000,797.620300 
	C97.474205,798.203247 94.490257,800.729614 94.712036,806.333435 
	C94.969086,812.828186 95.048355,819.338806 94.929848,825.837524 
	C94.737709,836.373718 94.034355,846.906860 94.070534,857.439514 
	C94.119003,871.553894 94.846474,885.665405 94.930756,899.780334 
	C94.979240,907.900452 94.228401,916.022644 94.057968,924.148499 
	C93.999657,926.928589 95.496086,929.996765 94.734123,932.453064 
	C93.182091,937.456299 95.865852,938.973877 99.596458,939.625610 
	C102.718613,940.171082 103.180695,941.750427 102.968063,944.450195 
	C102.526031,950.062439 101.928726,955.706360 102.131905,961.310547 
	C102.270653,965.137695 103.655930,968.919678 104.483894,972.721863 
	C104.972374,972.665405 105.460861,972.609009 105.949348,972.552551 
	C105.011086,973.780762 104.072823,975.008972 102.608887,976.925354 
	C105.393028,977.605408 107.507996,978.122009 110.000000,978.730713 
	C110.000000,983.496460 109.999985,988.135193 110.000000,992.773987 
	C110.000023,1002.154602 110.000031,1002.154602 118.996956,1004.955505 
	C118.761688,1006.162415 118.519089,1007.414307 118.273499,1008.665710 
	C115.965179,1020.426880 117.864494,1025.653320 126.001083,1029.127808 
	C126.001083,1034.458252 126.057091,1039.939819 125.979141,1045.419312 
	C125.935455,1048.490356 126.975441,1050.306396 130.212784,1051.175415 
	C131.692017,1051.572632 133.522842,1053.388916 133.838898,1054.854004 
	C134.634903,1058.543945 134.756256,1062.394531 134.974869,1066.190796 
	C135.410004,1073.747192 135.361969,1073.750000 141.820190,1076.023438 
	C142.208694,1079.407715 142.832779,1082.850586 142.927277,1086.307739 
	C143.000900,1089.000732 143.760681,1090.453613 146.467316,1091.469116 
	C147.970383,1092.032959 149.343872,1094.112305 149.884598,1095.794922 
	C150.679962,1098.269897 150.481461,1101.048706 151.102005,1103.601807 
	C151.401459,1104.834106 152.469009,1106.670166 153.418686,1106.825317 
	C159.512238,1107.820435 159.455719,1113.911377 157.614990,1115.742188 
	C153.815598,1119.521484 152.171143,1125.125488 148.671509,1127.851685 
	C144.437561,1131.149780 143.852310,1134.617188 142.934006,1138.811646 
	C142.622223,1140.235718 141.674774,1142.588623 140.850174,1142.663086 
	C134.352478,1143.250488 134.418472,1146.944458 135.732193,1151.851685 
	C136.545624,1154.890259 136.377548,1158.461792 132.334732,1158.819702 
	C127.373367,1159.259155 126.504189,1162.128784 127.054474,1165.981689 
	C127.944069,1172.210571 125.946075,1176.947632 120.852425,1180.628052 
	C119.864243,1181.342041 119.132347,1183.041748 119.083649,1184.317383 
	C118.854919,1190.309326 119.139442,1196.328979 118.705429,1202.299805 
	C118.585159,1203.954468 116.690651,1205.525391 115.494171,1207.043457 
	C114.336754,1208.512085 112.220085,1209.716553 111.934952,1211.292236 
	C110.924850,1216.873901 109.144196,1222.649902 113.217346,1227.961914 
	C113.734856,1228.636841 113.355446,1230.061157 113.267097,1231.127930 
	C112.979156,1234.604736 112.512459,1238.070557 112.334839,1241.551880 
	C111.944160,1249.209229 111.658768,1256.872314 111.388916,1264.535156 
	C111.236160,1268.872925 109.215889,1273.661377 113.014473,1277.255005 
	C115.896271,1279.981323 115.334290,1282.258179 113.569923,1285.095703 
	C108.419952,1293.378296 109.797897,1297.628174 119.211716,1301.024902 
	C119.211716,1304.220093 118.745872,1307.766479 119.345612,1311.122437 
	C119.920113,1314.337280 121.223381,1317.061157 119.324921,1320.537476 
	C118.387779,1322.253662 117.513344,1327.401245 122.158463,1326.550537 
	C127.324181,1325.604736 126.549004,1328.300781 127.109566,1331.381348 
	C127.795189,1335.149292 128.198532,1340.023804 130.674515,1342.182983 
	C135.303970,1346.220459 135.358307,1350.256714 134.439041,1355.481445 
	C133.805252,1359.083496 134.044983,1362.864624 139.534210,1363.208740 
	C140.759155,1363.285522 142.540024,1365.621460 142.821182,1367.146606 
	C143.302216,1369.756104 144.179260,1371.037720 146.914902,1371.022461 
	C151.277237,1370.998169 152.232864,1373.843384 151.695251,1377.409424 
	C150.568710,1384.881958 151.862549,1386.760498 158.771011,1386.947144 
	C159.334076,1390.258667 158.017029,1394.921997 163.712296,1394.960205 
	C167.040054,1394.982666 168.317184,1396.024414 167.206802,1399.510498 
	C166.945206,1400.331787 168.398773,1402.644409 168.770294,1402.579956 
	C173.968246,1401.679199 175.387375,1405.627197 177.488129,1408.880127 
	C178.063934,1409.771729 179.298370,1410.778687 180.250961,1410.799438 
	C186.993195,1410.946533 190.332474,1416.203979 195.989502,1420.530884 
	C193.805038,1421.648804 192.198120,1422.471069 190.591187,1423.293457 
	C190.795349,1423.946655 190.999512,1424.599731 191.203674,1425.252808 
	C193.453415,1425.501953 195.700775,1425.775391 197.953384,1425.994995 
	C202.596390,1426.447754 208.122116,1425.439819 208.286774,1432.855469 
	C208.302948,1433.583984 210.092667,1434.396362 211.173523,1434.944214 
	C212.320190,1435.525391 213.603104,1435.837646 215.194595,1436.396606 
	C212.074661,1438.474731 208.206467,1439.640991 207.619141,1441.729736 
	C206.309326,1446.387695 206.523315,1451.502197 206.335495,1456.438965 
	C206.186020,1460.368652 206.649185,1464.336182 206.305435,1468.239624 
	C206.003937,1471.663696 206.573547,1473.960938 210.135956,1475.271851 
	C211.760193,1475.869385 213.835297,1477.324951 214.228348,1478.788208 
	C215.337845,1482.918579 218.287781,1483.886475 221.715179,1483.915649 
	C225.001083,1483.943726 228.294434,1483.052612 231.580856,1483.076172 
	C234.733765,1483.098877 235.213242,1481.492554 235.928970,1478.862915 
	C243.761642,1478.848877 251.594330,1478.822388 259.427002,1478.822388 
	C660.569519,1478.820190 1061.712036,1478.777344 1462.854370,1478.987427 
	C1477.746460,1478.995239 1484.552734,1471.268799 1486.640625,1460.023926 
	C1486.640625,1460.023926 1487.024414,1460.004883 1487.711182,1459.932983 
	C1488.807495,1458.958740 1489.903687,1457.984619 1491.937256,1457.005737 
	C1503.624756,1457.008423 1515.312256,1457.010986 1527.113525,1457.707764 
	C1529.413330,1458.805176 1531.713013,1459.902588 1534.170776,1461.755249 
	C1536.474243,1471.943359 1543.978516,1478.839966 1552.627930,1478.836914 
	C1601.277222,1478.819580 1649.927856,1478.641479 1698.574585,1478.992310 
	C1707.427856,1479.056030 1714.913696,1477.538574 1721.363525,1471.429932 
z"/>
<path fill="#F2F2F2" opacity="1.000000" stroke="none" 
	d="
M1509.000000,801.002441 
	C1497.111938,801.000793 1485.223633,801.033752 1473.336060,800.962769 
	C1471.399048,800.951172 1469.464722,800.479919 1467.155029,799.688660 
	C1467.745117,797.434387 1468.626953,795.660095 1469.685547,793.998413 
	C1494.593140,754.897461 1504.189941,712.225464 1497.443726,666.482910 
	C1483.068726,569.015930 1396.540039,499.874359 1298.555664,509.103455 
	C1221.609009,516.351074 1169.162231,558.226379 1140.175659,629.568237 
	C1133.554077,645.865601 1130.889526,663.209045 1128.515869,680.614380 
	C1005.074951,680.606506 882.101929,680.616455 759.143433,680.509033 
	C759.157898,680.391785 758.803345,680.378662 758.803345,680.378662 
	C758.803345,680.378662 758.680298,680.645264 758.313293,680.587036 
	C757.473267,680.401733 757.000305,680.274597 756.409851,679.788025 
	C733.167419,640.808350 703.840759,607.627991 667.855896,580.631287 
	C585.414551,518.781860 493.035339,496.876556 391.544983,513.651489 
	C375.181091,516.356201 359.190460,521.319336 343.014191,524.812683 
	C342.998688,523.257263 342.996307,522.127563 343.143250,520.694946 
	C348.881531,513.408569 354.051086,506.032715 360.144257,499.521088 
	C374.068390,484.640594 390.218201,472.665039 408.367218,463.188477 
	C433.543030,450.042847 460.458954,443.215912 488.507294,443.191589 
	C820.820312,442.903473 1153.133545,442.985779 1485.446777,443.088867 
	C1497.361084,443.092560 1509.294434,444.074005 1521.185425,445.020294 
	C1544.310303,446.860535 1565.937134,454.238556 1586.066650,465.267151 
	C1605.688110,476.017365 1622.693115,490.321899 1637.202515,507.579193 
	C1657.474365,531.690369 1670.411255,559.211670 1675.830933,590.099670 
	C1678.251831,603.896912 1680.348755,617.882690 1678.046143,632.055115 
	C1675.982544,644.756531 1675.539551,657.867432 1672.133057,670.175415 
	C1663.811646,700.242249 1648.497803,726.523804 1626.052856,748.535583 
	C1611.594116,762.715454 1595.561401,774.568176 1577.301147,783.306274 
	C1555.703369,793.641418 1532.836914,799.232422 1509.000000,801.002441 
z"/>
<path fill="#F2F2F2" opacity="1.000000" stroke="none" 
	d="
M1326.024658,956.998047 
	C1374.847290,956.998657 1423.670288,957.099609 1472.492432,956.949036 
	C1491.204956,956.891357 1509.627197,958.695557 1527.253906,965.121765 
	C1542.880859,970.818909 1557.494263,978.716980 1569.590210,990.291504 
	C1577.935059,998.276611 1586.039917,1006.714294 1592.962646,1015.919312 
	C1598.360840,1023.097168 1602.163818,1031.590576 1605.921021,1039.842896 
	C1608.149170,1044.737061 1610.269287,1047.376953 1616.355347,1047.168213 
	C1639.271973,1046.382324 1661.691406,1050.148560 1683.234741,1057.756348 
	C1707.774536,1066.422363 1730.201050,1078.951294 1749.976929,1096.249634 
	C1762.281860,1107.013062 1773.636108,1118.563477 1783.054932,1131.810059 
	C1793.725342,1146.817017 1803.059937,1162.711060 1808.899536,1180.331787 
	C1811.972290,1189.603882 1815.072998,1198.934448 1817.108276,1208.463501 
	C1819.101196,1217.794556 1819.932617,1227.392944 1820.938843,1236.909302 
	C1821.600098,1243.163696 1822.447754,1249.556763 1821.845215,1255.754883 
	C1820.375977,1270.867554 1819.216064,1286.149170 1815.925903,1300.915771 
	C1809.996704,1327.526489 1798.274536,1351.861816 1782.012451,1373.750732 
	C1767.253174,1393.616821 1749.260742,1410.315552 1728.895996,1424.380005 
	C1722.806763,1428.585693 1716.368896,1432.286743 1709.647705,1436.479858 
	C1706.903564,1436.512451 1704.602417,1436.086426 1702.301147,1436.084717 
	C1653.710693,1436.048340 1605.120361,1436.047852 1556.529907,1436.069580 
	C1543.487671,1436.075439 1535.142944,1443.840576 1533.453125,1457.012939 
	C1531.016846,1457.009888 1529.008301,1457.011719 1526.999756,1457.013550 
	C1515.312256,1457.010986 1503.624756,1457.008423 1491.104248,1457.008789 
	C1489.189087,1458.009399 1488.106689,1459.007202 1487.024414,1460.004883 
	C1487.024414,1460.004883 1486.640625,1460.023926 1486.368896,1459.578247 
	C1486.012329,1443.087769 1478.971191,1436.062988 1462.991699,1436.055176 
	C1417.248779,1436.032715 1371.505981,1436.003418 1325.773193,1435.509766 
	C1325.789795,1374.769287 1325.798096,1314.495850 1325.792969,1254.222290 
	C1325.792725,1252.561401 1325.647339,1250.900635 1326.061279,1249.174438 
	C1380.190552,1249.072754 1433.828735,1249.161499 1487.465210,1248.919434 
	C1502.457153,1248.851807 1515.527466,1242.889404 1526.519165,1232.881104 
	C1541.192261,1219.520874 1547.849121,1202.382202 1547.909058,1182.812378 
	C1547.969116,1163.199463 1547.391846,1143.583374 1546.989624,1123.970825 
	C1546.767700,1113.153564 1543.267700,1103.475342 1537.310059,1094.373779 
	C1524.560181,1074.895264 1506.699951,1065.083252 1483.562012,1065.032104 
	C1435.587402,1064.925781 1387.612549,1065.005859 1339.637695,1064.983154 
	C1337.148804,1064.981934 1334.659912,1064.735229 1332.145508,1064.164551 
	C1332.127441,1052.595947 1332.085693,1041.465210 1332.168091,1030.335571 
	C1332.198364,1026.245239 1331.074463,1022.916748 1327.599487,1020.402100 
	C1326.630859,1019.701172 1325.870117,1018.015198 1325.868286,1016.779846 
	C1325.838745,996.852722 1325.947388,976.925354 1326.024658,956.998047 
z"/>
<path fill="#2CE060" opacity="1.000000" stroke="none" 
	d="
M1128.983887,680.632202 
	C1130.889526,663.209045 1133.554077,645.865601 1140.175659,629.568237 
	C1169.162231,558.226379 1221.609009,516.351074 1298.555664,509.103455 
	C1396.540039,499.874359 1483.068726,569.015930 1497.443726,666.482910 
	C1504.189941,712.225464 1494.593140,754.897461 1469.685547,793.998413 
	C1468.626953,795.660095 1467.745117,797.434387 1466.751465,799.521484 
	C1465.370728,801.283813 1464.019775,802.680969 1462.269287,804.566406 
	C1460.001709,807.543640 1458.133545,810.032471 1456.265503,812.521362 
	C1455.854614,812.799011 1455.443726,813.076660 1454.706299,813.792114 
	C1442.280762,825.166016 1430.181641,836.102051 1418.082520,847.038147 
	C1417.877808,847.104309 1417.673218,847.170471 1416.950684,847.513550 
	C1412.165649,850.476562 1407.898682,853.162720 1403.631592,855.848938 
	C1402.250610,856.478333 1400.869751,857.107666 1398.934082,858.006226 
	C1396.219971,859.429871 1394.060547,860.584351 1391.901123,861.738831 
	C1391.087646,862.016541 1390.274292,862.294312 1388.920898,862.819580 
	C1388.058838,863.319153 1387.736938,863.571289 1387.415039,863.823486 
	C1370.983154,870.167847 1354.232788,875.307556 1336.628906,877.193481 
	C1333.330933,877.546692 1330.023071,877.807068 1325.806274,878.175964 
	C1313.952515,877.932617 1303.012329,877.623596 1291.638672,877.232727 
	C1288.741577,876.776184 1286.268433,876.452881 1283.815063,876.019104 
	C1230.014160,866.506592 1188.162842,838.749451 1158.147217,793.228455 
	C1142.311157,769.211731 1133.525024,742.551208 1129.891357,713.673157 
	C1129.600342,702.363708 1129.292114,691.497925 1128.983887,680.632202 
M1343.721069,674.220703 
	C1325.140991,692.828796 1306.560913,711.436890 1286.831665,731.195984 
	C1283.905884,727.737915 1281.433594,724.391541 1278.536987,721.465027 
	C1265.413940,708.206665 1252.229248,695.007629 1238.943481,681.912476 
	C1233.401123,676.449707 1225.239868,676.451416 1220.093384,681.554504 
	C1214.965942,686.638733 1214.932739,694.151855 1220.160034,699.966492 
	C1222.606812,702.688171 1225.282715,705.205017 1227.874390,707.795166 
	C1244.369629,724.280701 1260.822388,740.809204 1277.396606,757.214905 
	C1282.789185,762.552673 1288.696167,763.524353 1294.112305,760.100220 
	C1296.469849,758.609802 1298.514404,756.558594 1300.508301,754.568787 
	C1324.088623,731.036377 1347.635986,707.470703 1371.184814,683.906738 
	C1383.312500,671.771240 1395.506226,659.700012 1407.513672,647.446472 
	C1413.885620,640.944031 1413.245850,631.942810 1406.416748,627.021057 
	C1400.922485,623.061340 1394.174194,623.895691 1388.431519,629.586792 
	C1373.641235,644.244080 1358.952026,659.003357 1343.721069,674.220703 
z"/>
<path fill="#9A9A9A" opacity="1.000000" stroke="none" 
	d="
M1325.763062,1435.976807 
	C1371.505981,1436.003418 1417.248779,1436.032715 1462.991699,1436.055176 
	C1478.971191,1436.062988 1486.012329,1443.087769 1486.176758,1459.582275 
	C1484.552734,1471.268799 1477.746460,1478.995239 1462.854370,1478.987427 
	C1061.712036,1478.777344 660.569519,1478.820190 259.427002,1478.822388 
	C251.594330,1478.822388 243.761642,1478.848877 235.026825,1478.862549 
	C231.696976,1478.647217 229.131454,1478.866089 226.864334,1478.145752 
	C213.735596,1473.974365 211.524490,1461.330078 213.762405,1449.895508 
	C215.315170,1441.961792 221.492447,1438.652222 228.750336,1436.164062 
	C232.025085,1436.140869 234.857513,1436.063110 237.689941,1436.062988 
	C301.517975,1436.058960 365.346008,1436.077026 429.174011,1436.033447 
	C433.130341,1436.030762 437.086334,1435.555176 441.452362,1435.277588 
	C449.541779,1435.488159 457.221313,1435.720581 465.378540,1435.916138 
	C515.019836,1435.911255 564.183472,1435.943237 613.794067,1435.988281 
	C625.179626,1435.993774 636.118225,1435.986328 647.521484,1435.980835 
	C649.152405,1436.001953 650.318665,1436.037598 651.484985,1436.037598 
	C863.144287,1436.040161 1074.803589,1436.040894 1286.462891,1436.032227 
	C1287.958252,1436.032104 1289.453735,1435.905396 1291.242310,1435.877197 
	C1291.732056,1435.933472 1291.928589,1435.950317 1292.585571,1435.991455 
	C1303.951660,1436.002808 1314.857422,1435.989868 1325.763062,1435.976807 
z"/>
<path fill="#FFFFFF" opacity="1.000000" stroke="none" 
	d="
M228.308014,1436.145874 
	C221.492447,1438.652222 215.315170,1441.961792 213.762405,1449.895508 
	C211.524490,1461.330078 213.735596,1473.974365 226.864334,1478.145752 
	C229.131454,1478.866089 231.696976,1478.647217 234.562347,1478.932739 
	C235.213242,1481.492554 234.733765,1483.098877 231.580856,1483.076172 
	C228.294434,1483.052612 225.001083,1483.943726 221.715179,1483.915649 
	C218.287781,1483.886475 215.337845,1482.918579 214.228348,1478.788208 
	C213.835297,1477.324951 211.760193,1475.869385 210.135956,1475.271851 
	C206.573547,1473.960938 206.003937,1471.663696 206.305435,1468.239624 
	C206.649185,1464.336182 206.186020,1460.368652 206.335495,1456.438965 
	C206.523315,1451.502197 206.309326,1446.387695 207.619141,1441.729736 
	C208.206467,1439.640991 212.074661,1438.474731 215.194595,1436.396606 
	C213.603104,1435.837646 212.320190,1435.525391 211.173523,1434.944214 
	C210.092667,1434.396362 208.302948,1433.583984 208.286774,1432.855469 
	C208.122116,1425.439819 202.596390,1426.447754 197.953384,1425.994995 
	C195.700775,1425.775391 193.453415,1425.501953 191.203674,1425.252808 
	C190.999512,1424.599731 190.795349,1423.946655 190.591187,1423.293457 
	C192.198120,1422.471069 193.805038,1421.648804 195.989502,1420.530884 
	C190.332474,1416.203979 186.993195,1410.946533 180.250961,1410.799438 
	C179.298370,1410.778687 178.063934,1409.771729 177.488129,1408.880127 
	C175.387375,1405.627197 173.968246,1401.679199 168.770294,1402.579956 
	C168.398773,1402.644409 166.945206,1400.331787 167.206802,1399.510498 
	C168.317184,1396.024414 167.040054,1394.982666 163.712296,1394.960205 
	C158.017029,1394.921997 159.334076,1390.258667 158.771011,1386.947144 
	C151.862549,1386.760498 150.568710,1384.881958 151.695251,1377.409424 
	C152.232864,1373.843384 151.277237,1370.998169 146.914902,1371.022461 
	C144.179260,1371.037720 143.302216,1369.756104 142.821182,1367.146606 
	C142.540024,1365.621460 140.759155,1363.285522 139.534210,1363.208740 
	C134.044983,1362.864624 133.805252,1359.083496 134.439041,1355.481445 
	C135.358307,1350.256714 135.303970,1346.220459 130.674515,1342.182983 
	C128.198532,1340.023804 127.795189,1335.149292 127.109566,1331.381348 
	C126.549004,1328.300781 127.324181,1325.604736 122.158463,1326.550537 
	C117.513344,1327.401245 118.387779,1322.253662 119.324921,1320.537476 
	C121.223381,1317.061157 119.920113,1314.337280 119.345612,1311.122437 
	C118.745872,1307.766479 119.211716,1304.220093 119.211716,1301.024902 
	C109.797897,1297.628174 108.419952,1293.378296 113.569923,1285.095703 
	C115.334290,1282.258179 115.896271,1279.981323 113.014473,1277.255005 
	C109.215889,1273.661377 111.236160,1268.872925 111.388916,1264.535156 
	C111.658768,1256.872314 111.944160,1249.209229 112.334839,1241.551880 
	C112.512459,1238.070557 112.979156,1234.604736 113.267097,1231.127930 
	C113.355446,1230.061157 113.734856,1228.636841 113.217346,1227.961914 
	C109.144196,1222.649902 110.924850,1216.873901 111.934952,1211.292236 
	C112.220085,1209.716553 114.336754,1208.512085 115.494171,1207.043457 
	C116.690651,1205.525391 118.585159,1203.954468 118.705429,1202.299805 
	C119.139442,1196.328979 118.854919,1190.309326 119.083649,1184.317383 
	C119.132347,1183.041748 119.864243,1181.342041 120.852425,1180.628052 
	C125.946075,1176.947632 127.944069,1172.210571 127.054474,1165.981689 
	C126.504189,1162.128784 127.373367,1159.259155 132.334732,1158.819702 
	C136.377548,1158.461792 136.545624,1154.890259 135.732193,1151.851685 
	C134.418472,1146.944458 134.352478,1143.250488 140.850174,1142.663086 
	C141.674774,1142.588623 142.622223,1140.235718 142.934006,1138.811646 
	C143.852310,1134.617188 144.437561,1131.149780 148.671509,1127.851685 
	C152.171143,1125.125488 153.815598,1119.521484 157.614990,1115.742188 
	C159.455719,1113.911377 159.512238,1107.820435 153.418686,1106.825317 
	C152.469009,1106.670166 151.401459,1104.834106 151.102005,1103.601807 
	C150.481461,1101.048706 150.679962,1098.269897 149.884598,1095.794922 
	C149.343872,1094.112305 147.970383,1092.032959 146.467316,1091.469116 
	C143.760681,1090.453613 143.000900,1089.000732 142.927277,1086.307739 
	C142.832779,1082.850586 142.208694,1079.407715 141.820190,1076.023438 
	C135.361969,1073.750000 135.410004,1073.747192 134.974869,1066.190796 
	C134.756256,1062.394531 134.634903,1058.543945 133.838898,1054.854004 
	C133.522842,1053.388916 131.692017,1051.572632 130.212784,1051.175415 
	C126.975441,1050.306396 125.935455,1048.490356 125.979141,1045.419312 
	C126.057091,1039.939819 126.001083,1034.458252 126.001083,1029.127808 
	C117.864494,1025.653320 115.965179,1020.426880 118.273499,1008.665710 
	C118.519089,1007.414307 118.761688,1006.162415 118.996956,1004.955505 
	C110.000031,1002.154602 110.000023,1002.154602 110.000000,992.773987 
	C109.999985,988.135193 110.000000,983.496460 110.000000,978.730713 
	C107.507996,978.122009 105.393028,977.605408 102.608887,976.925354 
	C104.072823,975.008972 105.011086,973.780762 105.949348,972.552551 
	C105.460861,972.609009 104.972374,972.665405 104.483894,972.721863 
	C103.655930,968.919678 102.270653,965.137695 102.131905,961.310547 
	C101.928726,955.706360 102.526031,950.062439 102.968063,944.450195 
	C103.180695,941.750427 102.718613,940.171082 99.596458,939.625610 
	C95.865852,938.973877 93.182091,937.456299 94.734123,932.453064 
	C95.496086,929.996765 93.999657,926.928589 94.057968,924.148499 
	C94.228401,916.022644 94.979240,907.900452 94.930756,899.780334 
	C94.846474,885.665405 94.119003,871.553894 94.070534,857.439514 
	C94.034355,846.906860 94.737709,836.373718 94.929848,825.837524 
	C95.048355,819.338806 94.969086,812.828186 94.712036,806.333435 
	C94.490257,800.729614 97.474205,798.203247 102.000000,797.620300 
	C102.000000,787.847168 102.023346,778.433228 101.990463,769.019531 
	C101.973167,764.069458 101.781830,759.138428 108.357628,757.872375 
	C109.044258,757.740234 109.831245,756.195007 109.922668,755.243103 
	C110.302368,751.289368 111.222679,747.156189 110.478401,743.377686 
	C109.224884,737.014160 112.106674,734.441345 117.533119,733.471802 
	C117.958359,730.938354 118.809349,728.632080 118.628571,726.409729 
	C118.150795,720.536316 120.982452,717.874207 125.754974,717.706299 
	C126.200172,710.819336 126.608406,704.421631 127.037827,698.025391 
	C127.070549,697.537903 127.087593,696.865295 127.391068,696.607849 
	C131.608459,693.031189 135.958206,689.605469 140.077042,685.920837 
	C141.284134,684.841003 142.753113,682.960205 142.593811,681.626709 
	C141.653732,673.757629 142.676086,671.631348 150.000092,669.130432 
	C150.000092,667.026672 149.994049,664.732178 150.001450,662.437683 
	C150.013962,658.563538 151.292068,656.667236 155.278244,654.383667 
	C159.127243,652.178772 162.712204,647.620361 165.685089,643.672668 
	C167.273590,641.563232 167.833405,639.249634 170.916306,638.815308 
	C174.306122,638.337708 175.617523,636.668091 174.573303,632.921509 
	C172.965012,627.151001 174.636444,624.328125 179.969574,621.942383 
	C180.744888,621.595642 181.750931,620.839905 181.881271,620.131836 
	C182.537903,616.564758 184.463074,614.463440 188.084732,613.972534 
	C188.249191,613.950256 188.474274,613.970642 188.565689,613.872742 
	C191.836502,610.368774 195.080475,606.839783 198.360962,603.344971 
	C199.929947,601.673462 201.547806,600.046692 203.175446,598.431824 
	C204.390045,597.226685 205.743988,596.150757 206.870041,594.871338 
	C207.717957,593.908020 208.064758,592.129822 209.048477,591.728394 
	C212.309433,590.397400 213.735077,587.581177 215.884750,585.207703 
	C217.758453,583.138916 221.718475,582.817566 224.840515,582.078186 
	C226.544907,581.674500 228.423477,582.006104 230.223495,582.006104 
	C229.904556,581.515747 229.585632,581.025452 229.266693,580.535095 
	C232.093216,577.812988 234.919724,575.090881 238.663376,571.485535 
	C238.487106,569.497498 239.503342,566.828491 243.891205,566.356079 
	C244.854446,566.252380 246.056702,564.340271 246.379929,563.065918 
	C247.401215,559.039673 250.079193,557.887634 253.812637,557.985718 
	C256.609772,558.059204 259.410431,558.000244 262.069214,558.000244 
	C264.103210,550.532288 264.310608,550.499939 272.406525,549.911255 
	C274.205109,549.780518 276.096832,548.790649 277.637054,547.742676 
	C280.010925,546.127563 282.115692,544.117676 284.342438,542.284790 
	C284.597504,542.074829 285.114716,541.963989 285.154327,541.743225 
	C287.003052,531.450623 295.553070,535.124023 301.689178,533.782166 
	C301.845184,533.748047 301.988342,533.655396 302.538361,533.414551 
	C302.358490,528.121155 304.545135,526.520996 310.395966,527.381592 
	C315.047913,528.065918 320.092926,526.077942 325.462738,525.194153 
	C325.715454,521.120361 327.746155,518.007141 332.859833,517.761841 
	C333.554321,517.728516 334.446228,516.623413 334.814758,515.817139 
	C337.329651,510.315308 337.292419,510.298279 342.589020,510.585846 
	C342.940857,505.944916 344.183075,501.911621 350.480988,502.912872 
	C350.983368,498.692047 351.858765,496.053162 356.834442,494.328644 
	C361.280701,492.787628 364.254028,486.969452 367.829163,482.995270 
	C368.109467,482.683685 367.829987,481.794342 368.117371,481.574524 
	C372.352539,478.335236 376.384125,474.701050 381.008881,472.147186 
	C383.860535,470.572418 387.513184,470.748688 387.202576,465.965851 
	C387.143585,465.057770 389.629425,462.950562 390.261932,463.190063 
	C397.138641,465.794189 401.006317,459.843872 406.198822,457.837463 
	C408.846710,456.814301 411.289062,455.259308 414.470123,453.609802 
	C416.329834,446.838837 417.520050,446.388214 425.651825,447.596985 
	C429.143341,448.115997 432.883453,447.348633 436.443420,446.759583 
	C437.374481,446.605560 438.580841,445.015900 438.754059,443.939636 
	C439.369202,440.117249 441.335907,439.449860 445.019836,439.539948 
	C449.324066,439.645203 453.816650,437.318848 457.452667,441.538910 
	C457.700745,441.826752 458.391846,441.852173 458.860565,441.811401 
	C462.197845,441.521240 465.528900,441.160126 468.865601,440.863007 
	C475.989441,440.228699 483.115326,439.079498 490.240662,439.077606 
	C825.854858,438.988586 1161.468994,438.986572 1497.083252,439.077576 
	C1505.433960,439.079834 1513.791138,440.158966 1522.132935,440.878754 
	C1529.083252,441.478424 1536.015503,442.287079 1542.955444,443.006622 
	C1543.612549,443.074738 1544.589355,442.917664 1544.874756,443.285950 
	C1549.368286,449.084229 1555.578491,446.829132 1561.345703,447.090637 
	C1565.470093,447.277649 1570.813477,446.010986 1571.425537,452.952515 
	C1571.495728,453.747803 1574.057983,454.516205 1575.564331,454.954834 
	C1579.597778,456.129364 1583.764771,456.573547 1586.604980,460.571320 
	C1587.674927,462.077209 1590.689087,462.957520 1592.747070,462.845123 
	C1596.778076,462.624908 1599.524292,464.202850 1601.560791,467.310425 
	C1603.840942,470.789764 1606.942017,471.836578 1610.892456,471.180267 
	C1613.972168,470.668579 1615.548218,472.131744 1614.757935,475.134399 
	C1613.715820,479.093933 1616.046753,480.436890 1618.914062,479.836395 
	C1624.676025,478.629639 1626.932617,481.144318 1627.389404,486.504700 
	C1627.814575,486.191589 1628.239746,485.878479 1628.664795,485.565369 
	C1630.328003,487.794342 1631.867554,490.132385 1633.701050,492.211151 
	C1634.789429,493.445221 1636.216553,494.843475 1637.708862,495.168182 
	C1641.558960,496.005890 1642.861084,498.346100 1642.001343,502.358063 
	C1641.656494,503.966949 1642.528198,506.251068 1643.593384,507.665314 
	C1646.170898,511.087616 1650.999634,512.687439 1651.551025,517.841370 
	C1651.649902,518.763672 1652.862061,519.697510 1653.748779,520.381470 
	C1657.128662,522.988464 1659.895996,525.686279 1659.120972,530.641663 
	C1658.728394,533.151184 1660.090210,534.996582 1663.192505,535.094116 
	C1666.390747,535.194519 1667.457031,537.313965 1666.944336,540.260803 
	C1665.998657,545.695984 1667.338623,549.707031 1671.721680,553.787231 
	C1674.510376,556.383118 1674.719238,561.750488 1676.224365,566.296570 
	C1676.915771,566.405457 1678.635376,566.324341 1679.978638,566.996033 
	C1681.113037,567.563232 1682.659058,569.106201 1682.546021,570.038269 
	C1682.177124,573.081482 1680.831299,576.002869 1680.428101,579.046143 
	C1679.970825,582.497437 1679.822021,586.053894 1680.097656,589.520264 
	C1680.378418,593.053589 1681.717407,596.510010 1681.931519,600.040161 
	C1682.694336,612.613525 1683.190063,625.203308 1683.733765,637.789185 
	C1683.774902,638.739014 1683.640381,639.847107 1683.177246,640.642944 
	C1680.581787,645.103821 1681.014404,649.635559 1681.831543,654.534180 
	C1682.574341,658.987671 1682.257080,663.687012 1681.831787,668.224060 
	C1681.704834,669.576965 1679.594727,670.710144 1678.473511,672.013000 
	C1677.267334,673.414612 1675.326172,674.803162 1675.149048,676.361450 
	C1674.458252,682.442444 1674.234619,688.585266 1674.053223,694.711548 
	C1673.968750,697.565674 1673.057739,699.114807 1669.982666,699.020264 
	C1666.578003,698.915588 1665.879150,700.352234 1666.649170,703.755615 
	C1668.264648,710.893982 1666.037964,714.248474 1659.303223,715.684326 
	C1659.642578,720.215698 1657.491699,722.711975 1652.966064,724.135010 
	C1651.109863,724.718628 1650.296753,728.068665 1648.542847,729.639832 
	C1644.457153,733.299622 1642.207642,737.372009 1642.688354,743.132935 
	C1642.783325,744.270508 1639.494873,746.454529 1637.510986,746.840210 
	C1633.541992,747.611694 1627.647583,753.033081 1626.884033,757.056519 
	C1626.614014,758.479553 1625.336060,760.068298 1624.068970,760.880249 
	C1619.759033,763.642090 1615.229858,766.059204 1610.825073,768.676392 
	C1609.271729,769.599426 1607.962402,771.218018 1606.317017,771.637207 
	C1603.590576,772.331848 1601.369019,772.693604 1602.680298,776.434265 
	C1602.823242,776.842285 1600.183472,779.089111 1599.392944,778.823181 
	C1593.550659,776.857666 1590.812256,781.602478 1587.004272,784.062012 
	C1585.301514,785.161926 1583.475586,786.075317 1581.683838,787.032471 
	C1580.238281,787.804626 1578.287720,788.148315 1577.378906,789.317566 
	C1573.605591,794.171570 1568.460083,795.009460 1562.871460,795.011658 
	C1559.109131,795.013123 1554.844849,794.163086 1554.602905,800.168274 
	C1554.576416,800.824707 1552.285645,801.851562 1551.002441,801.921326 
	C1542.224731,802.398193 1533.432861,802.610046 1524.651489,803.027710 
	C1521.187622,803.192566 1517.731445,803.959595 1514.285889,803.874939 
	C1512.552002,803.832336 1510.849731,802.498596 1509.066650,801.375549 
	C1532.836914,799.232422 1555.703369,793.641418 1577.301147,783.306274 
	C1595.561401,774.568176 1611.594116,762.715454 1626.052856,748.535583 
	C1648.497803,726.523804 1663.811646,700.242249 1672.133057,670.175415 
	C1675.539551,657.867432 1675.982544,644.756531 1678.046143,632.055115 
	C1680.348755,617.882690 1678.251831,603.896912 1675.830933,590.099670 
	C1670.411255,559.211670 1657.474365,531.690369 1637.202515,507.579193 
	C1622.693115,490.321899 1605.688110,476.017365 1586.066650,465.267151 
	C1565.937134,454.238556 1544.310303,446.860535 1521.185425,445.020294 
	C1509.294434,444.074005 1497.361084,443.092560 1485.446777,443.088867 
	C1153.133545,442.985779 820.820312,442.903473 488.507294,443.191589 
	C460.458954,443.215912 433.543030,450.042847 408.367218,463.188477 
	C390.218201,472.665039 374.068390,484.640594 360.144257,499.521088 
	C354.051086,506.032715 348.881531,513.408569 342.736389,520.746704 
	C339.457336,521.408630 336.640747,521.385071 334.039490,522.121826 
	C331.721344,522.778381 327.137573,522.478333 330.242401,527.440247 
	C330.547729,527.928162 329.493835,529.266602 329.081482,530.159424 
	C329.092133,530.108521 329.177063,530.168579 328.836548,530.114929 
	C327.658295,530.575195 326.820587,531.089111 325.689514,531.769409 
	C324.958954,532.030945 324.521759,532.126160 323.905487,531.922729 
	C321.863922,531.285095 320.001404,530.946045 318.588135,530.688721 
	C318.839996,532.503845 318.961700,533.381165 318.860718,534.492310 
	C317.420563,535.138977 316.203125,535.551758 314.820312,535.741516 
	C314.091248,535.973572 313.527588,536.428772 312.743835,537.101807 
	C311.541351,537.613220 310.558929,537.906738 309.130859,538.144043 
	C306.590698,538.132629 303.874786,537.135986 303.735168,541.101074 
	C301.855835,541.985413 300.233612,542.656738 298.256409,543.159302 
	C293.611206,540.406860 293.286560,540.618713 293.046387,546.086182 
	C293.006683,546.038879 293.115082,546.098145 292.743042,546.028259 
	C289.072601,545.795471 285.774017,545.568420 282.475922,545.575195 
	C282.167480,545.575867 281.481964,547.140747 281.638611,547.827087 
	C281.917725,549.049866 282.706909,550.156128 283.237122,551.293823 
	C283.191528,551.276428 283.260498,551.207336 282.981323,551.234985 
	C282.464142,551.537231 282.226135,551.811890 281.755096,552.330322 
	C246.448029,572.466370 215.256805,597.200378 188.744781,627.632751 
	C117.969780,708.873352 91.721901,803.973816 102.445580,909.962952 
	C107.797073,962.855225 123.549194,1013.249512 143.817749,1062.218872 
	C151.131485,1079.889038 159.347763,1097.185669 167.101471,1115.044434 
	C166.759506,1116.369507 166.669861,1117.438843 166.146774,1118.216553 
	C157.659973,1130.835693 148.387085,1142.997437 140.825806,1156.144775 
	C135.033737,1166.215820 130.818054,1177.319946 126.930618,1188.328125 
	C122.021530,1202.229492 118.931702,1216.638428 117.878113,1231.445679 
	C116.378181,1252.526001 116.157104,1273.451294 120.792648,1294.305054 
	C125.349129,1314.802979 131.714767,1334.595703 142.481079,1352.632812 
	C148.826111,1363.262817 156.231720,1373.302002 163.662216,1383.231201 
	C172.654022,1395.246582 183.686905,1405.389038 195.713501,1414.252686 
	C206.239273,1422.010498 217.417801,1428.882568 228.308014,1436.145874 
M313.588745,529.517700 
	C313.588745,529.517700 313.477203,529.584534 313.588745,529.517700 
z"/>
<path fill="#9B9B9B" opacity="1.000000" stroke="none" 
	d="
M1533.880737,1457.017822 
	C1535.142944,1443.840576 1543.487671,1436.075439 1556.529907,1436.069580 
	C1605.120361,1436.047852 1653.710693,1436.048340 1702.301147,1436.084717 
	C1704.602417,1436.086426 1706.903564,1436.512451 1709.615234,1436.797974 
	C1718.234741,1440.436401 1724.505127,1445.811401 1725.050293,1455.364258 
	C1725.267578,1459.173828 1723.998657,1463.067993 1723.058838,1467.432617 
	C1722.111206,1468.903931 1721.510986,1469.866333 1720.910889,1470.828735 
	C1714.913696,1477.538574 1707.427856,1479.056030 1698.574585,1478.992310 
	C1649.927856,1478.641479 1601.277222,1478.819580 1552.627930,1478.836914 
	C1543.978516,1478.839966 1536.474243,1471.943359 1534.125732,1460.979370 
	C1534.014038,1459.141602 1533.947388,1458.079712 1533.880737,1457.017822 
z"/>
<path fill="#20201E" opacity="1.000000" stroke="none" 
	d="
M1292.072021,877.314575 
	C1303.012329,877.623596 1313.952515,877.932617 1325.345947,878.263672 
	C1325.809204,904.216614 1325.819458,930.147644 1325.927124,956.538330 
	C1325.947388,976.925354 1325.838745,996.852722 1325.868286,1016.779846 
	C1325.870117,1018.015198 1326.630859,1019.701172 1327.599487,1020.402100 
	C1331.074463,1022.916748 1332.198364,1026.245239 1332.168091,1030.335571 
	C1332.085693,1041.465210 1332.127441,1052.595947 1331.745239,1064.267578 
	C1318.298218,1064.808472 1305.226074,1064.807861 1292.119629,1064.354492 
	C1292.081055,1001.706116 1292.076538,939.510315 1292.072021,877.314575 
z"/>
<path fill="#F6F6F6" opacity="1.000000" stroke="none" 
	d="
M1418.357910,847.176758 
	C1430.181641,836.102051 1442.280762,825.166016 1454.656982,814.040710 
	C1455.607422,816.558838 1456.280884,819.266296 1457.110840,822.602722 
	C1454.599365,823.443665 1452.239868,824.233765 1449.269897,825.228271 
	C1449.074463,825.989014 1448.150757,827.635742 1448.371826,829.111023 
	C1448.903564,832.660156 1448.475952,833.491943 1444.814941,831.811584 
	C1443.750244,831.322937 1441.242676,833.381531 1439.713379,834.653503 
	C1437.827026,836.222534 1436.301270,838.219177 1434.552246,839.963501 
	C1434.112427,840.401978 1432.928223,840.553772 1432.908325,840.886414 
	C1432.436646,848.798279 1424.836792,845.410400 1421.172729,848.232910 
	C1420.789307,848.528320 1419.501465,847.649475 1418.357910,847.176758 
z"/>
<path fill="#F6F6F6" opacity="1.000000" stroke="none" 
	d="
M1404.024780,855.920166 
	C1407.898682,853.162720 1412.165649,850.476562 1416.747437,847.764038 
	C1416.816772,854.839355 1412.451050,857.689148 1404.024780,855.920166 
z"/>
<path fill="#F6F6F6" opacity="1.000000" stroke="none" 
	d="
M1456.593994,812.720337 
	C1458.133545,810.032471 1460.001709,807.543640 1462.129639,804.884155 
	C1463.256836,806.835815 1464.124268,808.958130 1465.490967,812.301941 
	C1461.597900,810.229980 1460.378906,816.678406 1456.593994,812.720337 
z"/>
<path fill="#F6F6F6" opacity="1.000000" stroke="none" 
	d="
M1392.072388,862.042847 
	C1394.060547,860.584351 1396.219971,859.429871 1398.722778,858.252075 
	C1398.271851,860.193298 1397.655396,862.276917 1396.501465,864.000793 
	C1396.317261,864.276123 1393.723511,862.938599 1392.072388,862.042847 
z"/>
<path fill="#FCFEFD" opacity="1.000000" stroke="none" 
	d="
M1533.453125,1457.012939 
	C1533.947388,1458.079712 1534.014038,1459.141602 1534.046753,1460.601807 
	C1531.713013,1459.902588 1529.413330,1458.805176 1527.056641,1457.360596 
	C1529.008301,1457.011719 1531.016846,1457.009888 1533.453125,1457.012939 
z"/>
<path fill="#F6F6F6" opacity="1.000000" stroke="none" 
	d="
M1721.137207,1471.129395 
	C1721.510986,1469.866333 1722.111206,1468.903931 1722.958008,1467.829834 
	C1724.063354,1468.479980 1724.922119,1469.242065 1725.780762,1470.004150 
	C1724.308350,1470.479370 1722.835938,1470.954590 1721.137207,1471.129395 
z"/>
<path fill="#FCFEFD" opacity="1.000000" stroke="none" 
	d="
M1487.367798,1459.968994 
	C1488.106689,1459.007202 1489.189087,1458.009399 1490.635620,1457.010986 
	C1489.903687,1457.984619 1488.807495,1458.958740 1487.367798,1459.968994 
z"/>
<path fill="#F6F6F6" opacity="1.000000" stroke="none" 
	d="
M1387.730957,863.810913 
	C1387.736938,863.571289 1388.058838,863.319153 1388.694946,863.052612 
	C1388.688354,863.291687 1388.367676,863.545044 1387.730957,863.810913 
z"/>
<path fill="#FF4B57" opacity="1.000000" stroke="none" 
	d="
M298.611389,543.328064 
	C300.233612,542.656738 301.855835,541.985413 304.087646,541.097839 
	C306.323639,539.987854 307.950104,539.094055 309.576538,538.200317 
	C310.558929,537.906738 311.541351,537.613220 313.038849,537.100708 
	C314.031219,536.576050 314.508453,536.270325 314.985687,535.964600 
	C316.203125,535.551758 317.420563,535.138977 319.209595,534.459717 
	C321.215607,533.535950 322.650055,532.878662 324.084534,532.221375 
	C324.521759,532.126160 324.958954,532.030945 325.993134,531.777222 
	C327.452423,531.135315 328.314758,530.651978 329.177063,530.168579 
	C329.177063,530.168579 329.092133,530.108521 329.465454,530.149048 
	C334.234924,528.539185 338.631104,526.888794 343.027283,525.238464 
	C359.190460,521.319336 375.181091,516.356201 391.544983,513.651489 
	C493.035339,496.876556 585.414551,518.781860 667.855896,580.631287 
	C703.840759,607.627991 733.167419,640.808350 755.896118,679.882507 
	C742.337585,680.369202 729.174011,680.299011 716.013794,680.475952 
	C708.862915,680.572021 701.655334,680.602112 694.582275,681.510498 
	C676.759705,683.799377 661.302917,691.700134 646.993774,702.395081 
	C636.564026,691.812256 627.148315,680.625610 616.149719,671.307434 
	C563.141724,626.398376 501.666656,606.375732 432.426971,612.060974 
	C368.253937,617.330078 313.846985,643.992615 270.200500,691.260498 
	C220.268555,745.335327 198.364899,809.826782 204.465317,882.982727 
	C210.030762,949.723206 238.338135,1006.235107 289.409088,1049.558716 
	C362.011566,1111.147461 444.760529,1126.263794 535.395508,1097.543579 
	C561.354492,1089.317627 584.614258,1075.640747 606.562988,1059.960327 
	C606.728943,1064.107666 606.306030,1067.854492 606.948792,1071.408691 
	C607.440247,1074.126099 609.279724,1076.599976 610.519470,1079.182129 
	C611.434509,1081.088013 612.819519,1082.916260 613.150513,1084.918701 
	C613.606079,1087.675415 613.180725,1090.566895 613.285278,1093.395142 
	C613.427979,1097.253418 613.591309,1100.738403 609.408142,1103.248779 
	C607.794250,1104.217407 606.910339,1107.579956 606.897034,1109.858765 
	C606.734924,1137.511841 606.700684,1165.166992 606.959534,1192.818726 
	C606.983887,1195.430908 609.217896,1198.021240 610.421814,1200.623779 
	C611.374512,1202.682861 613.114563,1204.733643 613.144043,1206.807495 
	C613.371338,1222.796875 613.296814,1238.791138 613.256714,1254.783691 
	C613.211609,1272.766235 613.104614,1290.748657 612.738708,1308.931152 
	C611.893494,1309.746826 611.302856,1310.337158 610.779297,1310.981934 
	C583.898621,1344.086670 555.488708,1375.827148 525.622498,1406.260620 
	C513.598999,1418.512451 499.238647,1427.015869 482.788361,1431.838135 
	C476.927368,1433.556152 470.869080,1434.600952 464.900848,1435.953003 
	C457.221313,1435.720581 449.541779,1435.488159 441.010864,1435.239624 
	C416.274628,1432.162109 395.791260,1422.019409 379.604401,1404.304688 
	C352.545532,1374.691650 325.279083,1345.215820 299.437927,1314.554688 
	C259.558228,1267.236450 224.237427,1216.563965 193.440033,1162.835327 
	C184.343643,1146.965820 175.896744,1130.723999 167.152191,1114.652832 
	C159.347763,1097.185669 151.131485,1079.889038 143.817749,1062.218872 
	C123.549194,1013.249512 107.797073,962.855225 102.445580,909.962952 
	C91.721901,803.973816 117.969780,708.873352 188.744781,627.632751 
	C215.256805,597.200378 246.448029,572.466370 282.035278,552.297974 
	C282.785828,551.750305 283.023163,551.478821 283.260498,551.207336 
	C283.260498,551.207336 283.191528,551.276428 283.586243,551.244385 
	C287.025635,549.507629 290.070343,547.802856 293.115051,546.098145 
	C293.115082,546.098145 293.006683,546.038879 293.398834,546.065186 
	C295.397797,545.170349 297.004578,544.249207 298.611389,543.328064 
z"/>
<path fill="#1E1E1C" opacity="1.000000" stroke="none" 
	d="
M647.278320,702.652405 
	C661.302917,691.700134 676.759705,683.799377 694.582275,681.510498 
	C701.655334,680.602112 708.862915,680.572021 716.013794,680.475952 
	C729.174011,680.299011 742.337585,680.369202 756.013550,680.241943 
	C757.000305,680.274597 757.473267,680.401733 758.337769,680.679688 
	C758.729309,680.830444 759.021606,680.834351 759.021606,680.834351 
	C759.021606,680.834351 759.128906,680.626343 759.128906,680.626343 
	C882.101929,680.616455 1005.074951,680.606506 1128.515869,680.614380 
	C1129.292114,691.497925 1129.600342,702.363708 1129.434570,713.675720 
	C990.165894,714.117676 851.371155,714.093933 712.576416,714.177246 
	C706.789734,714.180725 700.849915,714.524292 695.243225,715.831787 
	C666.663025,722.496765 647.096069,747.289490 647.090942,776.662903 
	C647.052551,996.434937 647.062256,1216.207031 647.056885,1435.979004 
	C636.118225,1435.986328 625.179626,1435.993774 613.791382,1435.521240 
	C613.340515,1394.756958 613.343384,1354.472534 613.324768,1314.188232 
	C613.323914,1312.369141 613.129028,1310.550171 613.024536,1308.731079 
	C613.104614,1290.748657 613.211609,1272.766235 613.256714,1254.783691 
	C613.296814,1238.791138 613.371338,1222.796875 613.144043,1206.807495 
	C613.114563,1204.733643 611.374512,1202.682861 610.421814,1200.623779 
	C609.217896,1198.021240 606.983887,1195.430908 606.959534,1192.818726 
	C606.700684,1165.166992 606.734924,1137.511841 606.897034,1109.858765 
	C606.910339,1107.579956 607.794250,1104.217407 609.408142,1103.248779 
	C613.591309,1100.738403 613.427979,1097.253418 613.285278,1093.395142 
	C613.180725,1090.566895 613.606079,1087.675415 613.150513,1084.918701 
	C612.819519,1082.916260 611.434509,1081.088013 610.519470,1079.182129 
	C609.279724,1076.599976 607.440247,1074.126099 606.948792,1071.408691 
	C606.306030,1067.854492 606.728943,1064.107666 606.678467,1059.548340 
	C606.696594,1035.661621 606.587341,1012.668335 606.931458,989.681763 
	C606.977722,986.592468 609.267090,983.518860 610.598022,980.473145 
	C611.438538,978.549744 613.209900,976.699829 613.230042,974.802795 
	C613.430176,955.977417 613.316223,937.148926 613.392578,918.321716 
	C613.403381,915.655396 612.785889,913.927002 610.500671,912.077148 
	C608.589661,910.529968 607.016235,907.406067 606.949219,904.935364 
	C606.601318,892.115479 606.598267,879.276123 606.944763,866.456238 
	C607.011536,863.986450 608.569275,860.725830 610.514893,859.338196 
	C613.245483,857.390747 613.371582,855.272766 613.368713,852.566345 
	C613.341675,826.907654 613.277771,801.248535 613.390503,775.590332 
	C613.486023,753.856567 620.283081,734.331787 633.746765,717.287659 
	C637.852783,712.089661 642.745728,707.513428 647.278320,702.652405 
z"/>
<path fill="#FBFEFC" opacity="1.000000" stroke="none" 
	d="
M343.014191,524.812683 
	C338.631104,526.888794 334.234924,528.539185 329.454773,530.199951 
	C329.493835,529.266602 330.547729,527.928162 330.242401,527.440247 
	C327.137573,522.478333 331.721344,522.778381 334.039490,522.121826 
	C336.640747,521.385071 339.457336,521.408630 342.587097,521.049683 
	C342.996307,522.127563 342.998688,523.257263 343.014191,524.812683 
z"/>
<path fill="#2CE060" opacity="1.000000" stroke="none" 
	d="
M759.143433,680.509033 
	C759.128906,680.626343 759.021606,680.834351 759.021606,680.834351 
	C759.021606,680.834351 758.729309,680.830444 758.704834,680.737854 
	C758.680298,680.645264 758.803345,680.378662 758.803345,680.378662 
	C758.803345,680.378662 759.157898,680.391785 759.143433,680.509033 
z"/>
<path fill="#FFFFFF" opacity="1.000000" stroke="none" 
	d="
M1292.153809,1064.807129 
	C1305.226074,1064.807861 1318.298218,1064.808472 1331.770752,1064.705933 
	C1334.659912,1064.735229 1337.148804,1064.981934 1339.637695,1064.983154 
	C1387.612549,1065.005859 1435.587402,1064.925781 1483.562012,1065.032104 
	C1506.699951,1065.083252 1524.560181,1074.895264 1537.310059,1094.373779 
	C1543.267700,1103.475342 1546.767700,1113.153564 1546.989624,1123.970825 
	C1547.391846,1143.583374 1547.969116,1163.199463 1547.909058,1182.812378 
	C1547.849121,1202.382202 1541.192261,1219.520874 1526.519165,1232.881104 
	C1515.527466,1242.889404 1502.457153,1248.851807 1487.465210,1248.919434 
	C1433.828735,1249.161499 1380.190552,1249.072754 1325.620850,1249.187500 
	C1313.868530,1249.286133 1303.048340,1249.306519 1291.757324,1249.238281 
	C1245.149658,1249.127075 1199.012817,1249.088867 1152.876099,1249.085327 
	C1018.128662,1249.075073 883.381165,1249.049683 748.633728,1249.111328 
	C730.348755,1249.119751 715.015991,1242.571167 702.142212,1229.741821 
	C692.725586,1220.357666 687.650452,1208.820679 684.921692,1195.626343 
	C684.648926,1191.889038 684.099854,1188.588623 684.085510,1185.286011 
	C684.002258,1166.124146 683.830322,1146.958008 684.173401,1127.801880 
	C684.278931,1121.905640 685.245789,1115.836792 686.951355,1110.189209 
	C695.212341,1082.834351 719.608337,1064.987183 748.289185,1064.984497 
	C927.414246,1064.967407 1106.539307,1064.976196 1285.664429,1064.968506 
	C1287.827515,1064.968506 1289.990723,1064.863281 1292.153809,1064.807129 
M1469.933472,1197.414429 
	C1472.223999,1195.239258 1474.786865,1193.285400 1476.761108,1190.853394 
	C1490.244995,1174.241699 1493.439453,1155.744873 1484.771484,1136.162598 
	C1475.894775,1116.109131 1459.567871,1105.851196 1437.794800,1105.531006 
	C1406.475098,1105.070435 1375.143677,1105.369019 1343.817505,1105.450928 
	C1340.177979,1105.460571 1336.466431,1105.812134 1332.913330,1106.582275 
	C1306.155029,1112.381348 1289.156372,1136.090576 1292.037720,1163.382202 
	C1294.743652,1189.010010 1317.167969,1208.714844 1343.900635,1208.780029 
	C1374.893677,1208.855591 1405.886841,1208.770386 1436.880005,1208.808228 
	C1448.969849,1208.822998 1459.811035,1205.266113 1469.933472,1197.414429 
M799.473083,1149.178101 
	C795.167908,1133.465332 781.310181,1125.099365 765.303650,1128.549805 
	C749.887146,1131.873047 740.937317,1145.115234 742.192383,1162.745361 
	C743.208130,1177.013794 752.762878,1187.443604 767.410278,1189.314453 
	C780.366455,1190.969238 793.330444,1184.725098 798.168884,1171.533325 
	C800.768127,1164.446655 801.356812,1157.313354 799.473083,1149.178101 
M822.121704,1163.204468 
	C822.953979,1158.702637 825.056091,1155.019897 830.089600,1155.159424 
	C835.685120,1155.314453 836.324158,1159.865967 836.438171,1164.191772 
	C836.573547,1169.330322 836.395508,1174.476685 836.387817,1179.619629 
	C836.373047,1189.514893 836.395935,1189.630615 846.357178,1188.526001 
	C847.647339,1188.382812 849.705078,1186.340332 849.741760,1185.127319 
	C850.008179,1176.311157 850.159424,1167.467407 849.737671,1158.661377 
	C849.280518,1149.114746 843.774414,1144.161011 834.353516,1145.206665 
	C830.710938,1145.610840 827.325745,1148.327026 823.820679,1149.984497 
	C823.408447,1150.179321 822.979919,1150.339722 822.434937,1150.567993 
	C822.097046,1149.027466 821.796448,1147.656982 821.509827,1146.350098 
	C817.257019,1146.350098 813.351990,1146.350098 809.375854,1146.350098 
	C809.375854,1160.566772 809.375854,1174.414917 809.375854,1188.320190 
	C813.727478,1188.320190 817.635071,1188.320190 822.053650,1188.320190 
	C822.053650,1180.007202 822.053650,1172.044800 822.121704,1163.204468 
z"/>
<path fill="#1E1F1D" opacity="1.000000" stroke="none" 
	d="
M1292.228271,1249.326904 
	C1303.048340,1249.306519 1313.868530,1249.286133 1325.129150,1249.252686 
	C1325.647339,1250.900635 1325.792725,1252.561401 1325.792969,1254.222290 
	C1325.798096,1314.495850 1325.789795,1374.769287 1325.773193,1435.509888 
	C1314.857422,1435.989868 1303.951660,1436.002808 1292.567139,1435.525879 
	C1292.081665,1385.110840 1292.064819,1335.185791 1292.076050,1285.260620 
	C1292.078735,1273.282715 1292.174927,1261.304688 1292.228271,1249.326904 
z"/>
<path fill="#A3E3FF" opacity="1.000000" stroke="none" 
	d="
M1292.119629,1064.354492 
	C1289.990723,1064.863281 1287.827515,1064.968506 1285.664429,1064.968506 
	C1106.539307,1064.976196 927.414246,1064.967407 748.289185,1064.984497 
	C719.608337,1064.987183 695.212341,1082.834351 686.951355,1110.189209 
	C685.245789,1115.836792 684.278931,1121.905640 684.173401,1127.801880 
	C683.830322,1146.958008 684.002258,1166.124146 684.085510,1185.286011 
	C684.099854,1188.588623 684.648926,1191.889038 684.647827,1195.926025 
	C684.591248,1207.266479 684.053040,1217.963623 685.284363,1228.452759 
	C686.794861,1241.320190 693.428467,1252.358032 702.366455,1261.415039 
	C716.265991,1275.500122 733.865479,1281.009399 753.441345,1281.006348 
	C930.591919,1280.979004 1107.742432,1281.008179 1284.892944,1280.891846 
	C1289.557861,1280.888794 1291.117554,1281.891235 1291.097900,1286.852295 
	C1290.900757,1336.513550 1290.961182,1386.175903 1290.949097,1435.837891 
	C1289.453735,1435.905396 1287.958252,1436.032104 1286.462891,1436.032227 
	C1074.803589,1436.040894 863.144287,1436.040161 651.484985,1436.037598 
	C650.318665,1436.037598 649.152405,1436.001953 647.521484,1435.980957 
	C647.062256,1216.207031 647.052551,996.434937 647.090942,776.662903 
	C647.096069,747.289490 666.663025,722.496765 695.243225,715.831787 
	C700.849915,714.524292 706.789734,714.180725 712.576416,714.177246 
	C851.371155,714.093933 990.165894,714.117676 1129.417480,714.119446 
	C1133.525024,742.551208 1142.311157,769.211731 1158.147217,793.228455 
	C1188.162842,838.749451 1230.014160,866.506592 1283.815063,876.019104 
	C1286.268433,876.452881 1288.741577,876.776184 1291.638672,877.232788 
	C1292.076538,939.510315 1292.081055,1001.706116 1292.119629,1064.354492 
M1035.332275,748.231934 
	C1031.812500,744.197937 1027.334473,742.529541 1022.030945,742.536072 
	C986.884521,742.579346 951.738098,742.526794 916.591797,742.598511 
	C906.659302,742.618774 899.721252,749.249329 899.641602,758.423096 
	C899.562622,767.522095 906.551025,774.558655 916.349182,774.590576 
	C951.661804,774.705627 986.975037,774.656860 1022.288025,774.612671 
	C1028.972534,774.604309 1034.316284,771.867798 1037.359131,765.744324 
	C1040.272461,759.881287 1039.687378,754.137756 1035.332275,748.231934 
M862.094604,991.861389 
	C861.957153,1005.119202 866.940918,1012.671570 878.152588,1015.428894 
	C881.309814,1016.205444 884.746643,1016.030579 888.051270,1015.987915 
	C898.151184,1015.857727 906.429504,1008.712646 907.891296,999.036865 
	C909.787170,986.486877 905.074036,976.904541 895.193176,973.220276 
	C879.765991,967.468201 866.322876,974.714539 862.094604,991.861389 
M1100.570557,982.188904 
	C1094.556396,970.977478 1081.750854,970.120422 1070.741455,973.332520 
	C1067.579346,974.255249 1064.340698,976.506226 1062.198242,979.043945 
	C1054.966309,987.610046 1055.413086,1002.110107 1062.656616,1009.904968 
	C1069.205933,1016.952881 1084.755249,1018.564819 1093.303467,1013.082031 
	C1102.561890,1007.143677 1105.563110,995.249939 1100.570557,982.188904 
M1150.510864,978.282349 
	C1148.204712,976.242249 1146.177856,973.017029 1143.537598,972.395142 
	C1136.915283,970.835327 1130.400513,971.885315 1124.773193,978.803833 
	C1125.448486,973.852539 1123.955811,972.537170 1120.724731,972.929260 
	C1119.247192,973.108521 1117.714233,973.095764 1116.233154,972.930481 
	C1112.280396,972.489380 1110.952637,974.196289 1111.038208,978.094177 
	C1111.239136,987.252502 1110.980835,996.420288 1111.132690,1005.580444 
	C1111.310913,1016.335815 1108.747925,1014.846619 1121.093140,1015.093750 
	C1124.308594,1015.158081 1125.042358,1013.791016 1124.980103,1010.914734 
	C1124.839478,1004.420593 1124.891846,997.920898 1124.950195,991.424255 
	C1125.002441,985.600891 1127.814697,982.089050 1132.347656,982.002075 
	C1136.556763,981.921265 1138.997192,985.222046 1139.056030,991.289062 
	C1139.120605,997.952332 1138.967041,1004.620117 1139.182739,1011.277100 
	C1139.223511,1012.535339 1140.415527,1014.692200 1141.304565,1014.817688 
	C1144.406860,1015.255371 1147.620361,1015.126282 1150.765259,1014.878662 
	C1151.516846,1014.819519 1152.802612,1013.436768 1152.767944,1012.714417 
	C1152.228149,1001.470520 1151.511230,990.235168 1150.510864,978.282349 
M990.228699,1015.024231 
	C991.126526,1013.776855 992.761597,1012.552490 992.801331,1011.278320 
	C993.040161,1003.629333 993.433289,995.918274 992.695862,988.332886 
	C992.305298,984.315552 990.584290,979.782166 987.983765,976.752014 
	C981.415833,969.099365 972.487122,971.470703 964.288269,973.208740 
	C957.341431,974.681519 956.474609,977.275574 958.692566,983.627930 
	C963.979675,982.731750 969.102295,981.378540 974.254333,981.255371 
	C976.035645,981.212769 977.890015,984.227295 979.711060,985.845459 
	C978.094849,986.578430 976.542664,987.561340 974.849792,987.994934 
	C970.690735,989.060242 966.363159,989.550537 962.293335,990.861633 
	C956.037659,992.876770 952.768921,999.579224 954.142639,1006.602478 
	C955.302734,1012.533081 959.783081,1016.439270 966.324768,1015.874756 
	C970.967468,1015.473938 975.481384,1013.581177 979.731567,1012.440552 
	C978.991211,1014.951294 981.408569,1015.223022 984.310730,1015.054932 
	C985.969727,1014.958801 987.638733,1015.035461 990.228699,1015.024231 
M836.051636,984.499573 
	C836.051575,977.846375 836.130859,971.191956 836.032654,964.540222 
	C835.890503,954.908997 837.796692,956.157043 827.205566,955.900940 
	C823.960938,955.822571 822.875793,956.867554 822.901123,960.154297 
	C823.031860,977.118958 823.017334,994.085510 822.906738,1011.050476 
	C822.887085,1014.073303 823.850525,1015.145935 826.909607,1015.094971 
	C835.888916,1014.945129 844.879333,1014.833618 853.851196,1015.132385 
	C858.266052,1015.279419 858.201477,1012.842896 858.074341,1009.807312 
	C857.953003,1006.908997 858.893799,1003.658997 853.866638,1003.970459 
	C848.130676,1004.325684 842.355774,1004.052551 836.051697,1004.052551 
	C836.051697,997.390625 836.051697,991.445007 836.051636,984.499573 
M1018.993774,962.986816 
	C1018.319824,962.174133 1017.507690,960.584839 1016.994507,960.676025 
	C1013.902100,961.226135 1010.832275,962.028381 1007.861389,963.054565 
	C1007.047791,963.335571 1005.979919,964.759216 1006.083374,965.513977 
	C1006.801392,970.753418 1005.147888,973.857300 999.480408,973.375793 
	C998.323364,981.902832 998.323364,981.902832 1005.957581,983.737061 
	C1005.957581,989.538879 1005.933716,995.491089 1005.962769,1001.443054 
	C1006.017029,1012.569275 1009.572815,1016.092712 1020.633911,1016.037903 
	C1028.651733,1015.998230 1030.502563,1013.101135 1027.261230,1005.351929 
	C1023.360413,1006.772217 1019.760986,1005.778748 1019.273682,1001.546387 
	C1018.581848,995.537170 1019.098022,989.388794 1019.098022,983.429871 
	C1030.068115,981.913879 1030.455933,981.376160 1027.084839,973.277649 
	C1018.996338,972.461487 1018.996338,972.461487 1018.993774,962.986816 
M948.952271,1009.411011 
	C948.952271,1007.490601 948.952271,1005.570190 948.952271,1003.110229 
	C942.078308,1006.124573 935.886292,1007.936523 930.369141,1002.311646 
	C927.413330,999.298279 926.737976,991.497559 929.129517,987.733215 
	C934.035828,980.010620 941.054260,981.427307 948.054382,984.062134 
	C950.652222,974.074951 949.181641,972.039612 939.768311,971.953918 
	C938.601868,971.943298 937.431824,972.011841 936.269348,971.943359 
	C927.041199,971.399719 920.373047,975.796570 916.429626,983.616028 
	C912.664917,991.081177 912.660339,999.045288 917.063599,1006.529114 
	C922.253540,1015.349976 937.819580,1019.721802 946.771362,1014.717773 
	C947.954773,1014.056152 948.245972,1011.798706 948.952271,1009.411011 
M761.475769,970.981873 
	C765.516296,967.289734 769.544739,963.584167 773.602051,959.910583 
	C775.948181,957.786377 777.313293,955.307251 774.937744,952.583435 
	C772.598328,949.901001 770.024292,950.679382 767.565735,952.883240 
	C757.321777,962.065857 746.998779,971.160278 736.765442,980.354553 
	C734.028687,982.813416 734.078552,985.740784 736.699280,988.144653 
	C747.208923,997.784607 757.745239,1007.402893 768.569092,1016.682190 
	C769.764038,1017.706604 773.975220,1017.296021 774.804688,1016.134705 
	C775.834656,1014.692627 775.667847,1011.039612 774.483459,1009.641724 
	C771.627991,1006.271362 767.831482,1003.711304 764.501465,1000.727234 
	C758.629944,995.465698 752.823425,990.131775 746.591614,984.466370 
	C751.639282,979.907104 756.304016,975.693726 761.475769,970.981873 
M1039.676025,1015.037720 
	C1040.675659,1015.037170 1041.696533,1014.903687 1042.671509,1015.058411 
	C1047.593140,1015.839355 1049.392456,1014.151428 1049.108154,1008.875183 
	C1048.624512,999.904236 1048.973145,990.888428 1048.971558,981.891479 
	C1048.969849,972.314636 1048.974121,972.399475 1039.454834,972.911194 
	C1036.943848,973.046143 1035.885376,973.779297 1035.904419,976.406738 
	C1035.989136,988.068848 1035.854614,999.733337 1036.058838,1011.392456 
	C1036.080322,1012.619080 1037.807373,1013.815918 1039.676025,1015.037720 
M1045.409790,952.998291 
	C1042.414551,953.702942 1038.873535,953.683105 1036.624512,955.377930 
	C1035.225464,956.432190 1034.704224,960.772766 1035.739868,962.386780 
	C1036.966919,964.299133 1040.188477,965.298279 1042.733521,965.907593 
	C1046.078857,966.708374 1048.512085,964.939758 1049.553833,961.633606 
	C1050.716919,957.941772 1049.300537,955.198730 1045.409790,952.998291 
z"/>
<path fill="#FBFEFC" opacity="1.000000" stroke="none" 
	d="
M1343.971680,673.971313 
	C1358.952026,659.003357 1373.641235,644.244080 1388.431519,629.586792 
	C1394.174194,623.895691 1400.922485,623.061340 1406.416748,627.021057 
	C1413.245850,631.942810 1413.885620,640.944031 1407.513672,647.446472 
	C1395.506226,659.700012 1383.312500,671.771240 1371.184814,683.906738 
	C1347.635986,707.470703 1324.088623,731.036377 1300.508301,754.568787 
	C1298.514404,756.558594 1296.469849,758.609802 1294.112305,760.100220 
	C1288.696167,763.524353 1282.789185,762.552673 1277.396606,757.214905 
	C1260.822388,740.809204 1244.369629,724.280701 1227.874390,707.795166 
	C1225.282715,705.205017 1222.606812,702.688171 1220.160034,699.966492 
	C1214.932739,694.151855 1214.965942,686.638733 1220.093384,681.554504 
	C1225.239868,676.451416 1233.401123,676.449707 1238.943481,681.912476 
	C1252.229248,695.007629 1265.413940,708.206665 1278.536987,721.465027 
	C1281.433594,724.391541 1283.905884,727.737915 1286.831665,731.195984 
	C1306.560913,711.436890 1325.140991,692.828796 1343.971680,673.971313 
z"/>
<path fill="#F2F2F2" opacity="1.000000" stroke="none" 
	d="
M167.101486,1115.044434 
	C175.896744,1130.723999 184.343643,1146.965820 193.440033,1162.835327 
	C224.237427,1216.563965 259.558228,1267.236450 299.437927,1314.554688 
	C325.279083,1345.215820 352.545532,1374.691650 379.604401,1404.304688 
	C395.791260,1422.019409 416.274628,1432.162109 440.600952,1435.261475 
	C437.086334,1435.555176 433.130341,1436.030762 429.174011,1436.033447 
	C365.346008,1436.077026 301.517975,1436.058960 237.689941,1436.062988 
	C234.857513,1436.063110 232.025085,1436.140869 228.750336,1436.164062 
	C217.417801,1428.882568 206.239273,1422.010498 195.713501,1414.252686 
	C183.686905,1405.389038 172.654022,1395.246582 163.662216,1383.231201 
	C156.231720,1373.302002 148.826111,1363.262817 142.481079,1352.632812 
	C131.714767,1334.595703 125.349129,1314.802979 120.792648,1294.305054 
	C116.157104,1273.451294 116.378181,1252.526001 117.878113,1231.445679 
	C118.931702,1216.638428 122.021530,1202.229492 126.930618,1188.328125 
	C130.818054,1177.319946 135.033737,1166.215820 140.825806,1156.144775 
	C148.387085,1142.997437 157.659973,1130.835693 166.146774,1118.216553 
	C166.669861,1117.438843 166.759506,1116.369507 167.101486,1115.044434 
z"/>
<path fill="#97D0E8" opacity="1.000000" stroke="none" 
	d="
M1291.242310,1435.877197 
	C1290.961182,1386.175903 1290.900757,1336.513550 1291.097900,1286.852295 
	C1291.117554,1281.891235 1289.557861,1280.888794 1284.892944,1280.891846 
	C1107.742432,1281.008179 930.591919,1280.979004 753.441345,1281.006348 
	C733.865479,1281.009399 716.265991,1275.500122 702.366455,1261.415039 
	C693.428467,1252.358032 686.794861,1241.320190 685.284363,1228.452759 
	C684.053040,1217.963623 684.591248,1207.266479 684.618652,1196.361938 
	C687.650452,1208.820679 692.725586,1220.357666 702.142212,1229.741821 
	C715.015991,1242.571167 730.348755,1249.119751 748.633728,1249.111328 
	C883.381165,1249.049683 1018.128662,1249.075073 1152.876099,1249.085327 
	C1199.012817,1249.088867 1245.149658,1249.127075 1291.757324,1249.238159 
	C1292.174927,1261.304688 1292.078735,1273.282715 1292.076050,1285.260620 
	C1292.064819,1335.185791 1292.081665,1385.110840 1292.106689,1435.501465 
	C1291.928589,1435.950317 1291.732056,1435.933472 1291.242310,1435.877197 
z"/>
<path fill="#F2F1F1" opacity="1.000000" stroke="none" 
	d="
M612.738647,1308.931152 
	C613.129028,1310.550171 613.323914,1312.369141 613.324768,1314.188232 
	C613.343384,1354.472534 613.340515,1394.756958 613.344421,1435.508301 
	C564.183472,1435.943237 515.019836,1435.911255 465.378540,1435.916138 
	C470.869080,1434.600952 476.927368,1433.556152 482.788361,1431.838135 
	C499.238647,1427.015869 513.598999,1418.512451 525.622498,1406.260620 
	C555.488708,1375.827148 583.898621,1344.086670 610.779297,1310.981934 
	C611.302856,1310.337158 611.893494,1309.746826 612.738647,1308.931152 
z"/>
<path fill="#F6F6F6" opacity="1.000000" stroke="none" 
	d="
M292.743042,546.028259 
	C290.070343,547.802856 287.025635,549.507629 283.631836,551.261780 
	C282.706909,550.156128 281.917725,549.049866 281.638611,547.827087 
	C281.481964,547.140747 282.167480,545.575867 282.475922,545.575195 
	C285.774017,545.568420 289.072601,545.795471 292.743042,546.028259 
z"/>
<path fill="#F6F6F6" opacity="1.000000" stroke="none" 
	d="
M298.256409,543.159302 
	C297.004578,544.249207 295.397797,545.170349 293.438538,546.112488 
	C293.286560,540.618713 293.611206,540.406860 298.256409,543.159302 
z"/>
<path fill="#F6F6F6" opacity="1.000000" stroke="none" 
	d="
M323.905487,531.922729 
	C322.650055,532.878662 321.215607,533.535950 319.432312,534.225830 
	C318.961700,533.381165 318.839996,532.503845 318.588135,530.688721 
	C320.001404,530.946045 321.863922,531.285095 323.905487,531.922729 
z"/>
<path fill="#F6F6F6" opacity="1.000000" stroke="none" 
	d="
M309.130859,538.144043 
	C307.950104,539.094055 306.323639,539.987854 304.344727,540.884766 
	C303.874786,537.135986 306.590698,538.132629 309.130859,538.144043 
z"/>
<path fill="#F6F6F6" opacity="1.000000" stroke="none" 
	d="
M328.836548,530.114929 
	C328.314758,530.651978 327.452423,531.135315 326.286499,531.610840 
	C326.820587,531.089111 327.658295,530.575195 328.836548,530.114929 
z"/>
<path fill="#F6F6F6" opacity="1.000000" stroke="none" 
	d="
M314.820312,535.741516 
	C314.508453,536.270325 314.031219,536.576050 313.258942,536.882874 
	C313.527588,536.428772 314.091248,535.973572 314.820312,535.741516 
z"/>
<path fill="#F6F6F6" opacity="1.000000" stroke="none" 
	d="
M282.981354,551.234985 
	C283.023163,551.478821 282.785828,551.750305 282.268311,552.054077 
	C282.226135,551.811890 282.464142,551.537231 282.981354,551.234985 
z"/>
<path fill="#F6F6F6" opacity="1.000000" stroke="none" 
	d="
M313.532959,529.551147 
	C313.477203,529.584534 313.588745,529.517700 313.532959,529.551147 
z"/>
<path fill="#FFFFFF" opacity="1.000000" stroke="none" 
	d="
M646.993774,702.395081 
	C642.745728,707.513428 637.852783,712.089661 633.746765,717.287659 
	C620.283081,734.331787 613.486023,753.856567 613.390503,775.590332 
	C613.277771,801.248535 613.341675,826.907654 613.368713,852.566345 
	C613.371582,855.272766 613.245483,857.390747 610.514893,859.338196 
	C608.569275,860.725830 607.011536,863.986450 606.944763,866.456238 
	C606.598267,879.276123 606.601318,892.115479 606.949219,904.935364 
	C607.016235,907.406067 608.589661,910.529968 610.500671,912.077148 
	C612.785889,913.927002 613.403381,915.655396 613.392578,918.321716 
	C613.316223,937.148926 613.430176,955.977417 613.230042,974.802795 
	C613.209900,976.699829 611.438538,978.549744 610.598022,980.473145 
	C609.267090,983.518860 606.977722,986.592468 606.931458,989.681763 
	C606.587341,1012.668335 606.696594,1035.661621 606.548096,1059.064941 
	C584.614258,1075.640747 561.354492,1089.317627 535.395508,1097.543579 
	C444.760529,1126.263794 362.011566,1111.147461 289.409088,1049.558716 
	C238.338135,1006.235107 210.030762,949.723206 204.465317,882.982727 
	C198.364899,809.826782 220.268555,745.335327 270.200500,691.260498 
	C313.846985,643.992615 368.253937,617.330078 432.426971,612.060974 
	C501.666656,606.375732 563.141724,626.398376 616.149719,671.307434 
	C627.148315,680.625610 636.564026,691.812256 646.993774,702.395081 
z"/>
<path fill="#2EE061" opacity="1.000000" stroke="none" 
	d="
M1469.660645,1197.645996 
	C1459.811035,1205.266113 1448.969849,1208.822998 1436.880005,1208.808228 
	C1405.886841,1208.770386 1374.893677,1208.855591 1343.900635,1208.780029 
	C1317.167969,1208.714844 1294.743652,1189.010010 1292.037720,1163.382202 
	C1289.156372,1136.090576 1306.155029,1112.381348 1332.913330,1106.582275 
	C1336.466431,1105.812134 1340.177979,1105.460571 1343.817505,1105.450928 
	C1375.143677,1105.369019 1406.475098,1105.070435 1437.794800,1105.531006 
	C1459.567871,1105.851196 1475.894775,1116.109131 1484.771484,1136.162598 
	C1493.439453,1155.744873 1490.244995,1174.241699 1476.761108,1190.853394 
	C1474.786865,1193.285400 1472.223999,1195.239258 1469.660645,1197.645996 
M1458.627441,1184.155273 
	C1471.532227,1171.318604 1474.393188,1154.375122 1466.170654,1139.481079 
	C1458.265991,1125.162476 1441.540649,1117.767578 1425.755981,1121.612671 
	C1411.038086,1125.197876 1400.308960,1137.135742 1398.109863,1152.373535 
	C1396.052368,1166.629395 1403.447144,1181.542603 1416.109863,1188.674805 
	C1429.692139,1196.324707 1445.457153,1194.808228 1458.627441,1184.155273 
z"/>
<path fill="#9B9B9B" opacity="1.000000" stroke="none" 
	d="
M799.597290,1149.574463 
	C801.356812,1157.313354 800.768127,1164.446655 798.168884,1171.533325 
	C793.330444,1184.725098 780.366455,1190.969238 767.410278,1189.314453 
	C752.762878,1187.443604 743.208130,1177.013794 742.192383,1162.745361 
	C740.937317,1145.115234 749.887146,1131.873047 765.303650,1128.549805 
	C781.310181,1125.099365 795.167908,1133.465332 799.597290,1149.574463 
M778.916992,1175.637695 
	C786.292664,1170.010010 788.585938,1157.683228 784.079590,1147.887817 
	C779.569214,1138.083740 767.529480,1136.367188 760.739502,1144.786255 
	C756.166504,1150.456421 755.587097,1157.186768 756.915955,1164.180542 
	C759.087097,1175.607422 767.526428,1180.304443 778.916992,1175.637695 
z"/>
<path fill="#9B9B9B" opacity="1.000000" stroke="none" 
	d="
M822.087646,1163.643555 
	C822.053650,1172.044800 822.053650,1180.007202 822.053650,1188.320190 
	C817.635071,1188.320190 813.727478,1188.320190 809.375854,1188.320190 
	C809.375854,1174.414917 809.375854,1160.566772 809.375854,1146.350098 
	C813.351990,1146.350098 817.257019,1146.350098 821.509827,1146.350098 
	C821.796448,1147.656982 822.097046,1149.027466 822.434937,1150.567993 
	C822.979919,1150.339722 823.408447,1150.179321 823.820679,1149.984497 
	C827.325745,1148.327026 830.710938,1145.610840 834.353516,1145.206665 
	C843.774414,1144.161011 849.280518,1149.114746 849.737671,1158.661377 
	C850.159424,1167.467407 850.008179,1176.311157 849.741760,1185.127319 
	C849.705078,1186.340332 847.647339,1188.382812 846.357178,1188.526001 
	C836.395935,1189.630615 836.373047,1189.514893 836.387817,1179.619629 
	C836.395508,1174.476685 836.573547,1169.330322 836.438171,1164.191772 
	C836.324158,1159.865967 835.685120,1155.314453 830.089600,1155.159424 
	C825.056091,1155.019897 822.953979,1158.702637 822.087646,1163.643555 
z"/>
<path fill="#20201E" opacity="1.000000" stroke="none" 
	d="
M1035.566650,748.515137 
	C1039.687378,754.137756 1040.272461,759.881287 1037.359131,765.744324 
	C1034.316284,771.867798 1028.972534,774.604309 1022.288025,774.612671 
	C986.975037,774.656860 951.661804,774.705627 916.349182,774.590576 
	C906.551025,774.558655 899.562622,767.522095 899.641602,758.423096 
	C899.721252,749.249329 906.659302,742.618774 916.591797,742.598511 
	C951.738098,742.526794 986.884521,742.579346 1022.030945,742.536072 
	C1027.334473,742.529541 1031.812500,744.197937 1035.566650,748.515137 
z"/>
<path fill="#FBFEFC" opacity="1.000000" stroke="none" 
	d="
M862.150269,991.431641 
	C866.322876,974.714539 879.765991,967.468201 895.193176,973.220276 
	C905.074036,976.904541 909.787170,986.486877 907.891296,999.036865 
	C906.429504,1008.712646 898.151184,1015.857727 888.051270,1015.987915 
	C884.746643,1016.030579 881.309814,1016.205444 878.152588,1015.428894 
	C866.940918,1012.671570 861.957153,1005.119202 862.150269,991.431641 
M885.432800,981.987061 
	C880.067322,982.316406 877.052734,985.011597 876.075317,990.353149 
	C874.812500,997.254517 877.167908,1003.811340 881.596375,1005.609619 
	C882.193665,1005.852173 882.885132,1005.887329 883.539490,1005.961304 
	C890.264832,1006.721191 893.574463,1003.746582 894.830017,995.828491 
	C895.951416,988.756348 892.590454,983.334778 885.432800,981.987061 
z"/>
<path fill="#FBFEFC" opacity="1.000000" stroke="none" 
	d="
M1100.747803,982.533447 
	C1105.563110,995.249939 1102.561890,1007.143677 1093.303467,1013.082031 
	C1084.755249,1018.564819 1069.205933,1016.952881 1062.656616,1009.904968 
	C1055.413086,1002.110107 1054.966309,987.610046 1062.198242,979.043945 
	C1064.340698,976.506226 1067.579346,974.255249 1070.741455,973.332520 
	C1081.750854,970.120422 1094.556396,970.977478 1100.747803,982.533447 
M1089.916138,994.360596 
	C1089.643433,987.105469 1087.287231,983.112610 1082.687256,982.110474 
	C1077.568970,980.995300 1072.446777,984.092407 1071.170532,989.073730 
	C1069.208130,996.733032 1071.888672,1004.301941 1077.118286,1005.820251 
	C1077.589355,1005.956970 1078.107178,1005.933228 1078.603271,1005.983398 
	C1085.275635,1006.657837 1087.716553,1004.324524 1089.916138,994.360596 
z"/>
<path fill="#FBFEFC" opacity="1.000000" stroke="none" 
	d="
M1150.673096,978.640076 
	C1151.511230,990.235168 1152.228149,1001.470520 1152.767944,1012.714417 
	C1152.802612,1013.436768 1151.516846,1014.819519 1150.765259,1014.878662 
	C1147.620361,1015.126282 1144.406860,1015.255371 1141.304565,1014.817688 
	C1140.415527,1014.692200 1139.223511,1012.535339 1139.182739,1011.277100 
	C1138.967041,1004.620117 1139.120605,997.952332 1139.056030,991.289062 
	C1138.997192,985.222046 1136.556763,981.921265 1132.347656,982.002075 
	C1127.814697,982.089050 1125.002441,985.600891 1124.950195,991.424255 
	C1124.891846,997.920898 1124.839478,1004.420593 1124.980103,1010.914734 
	C1125.042358,1013.791016 1124.308594,1015.158081 1121.093140,1015.093750 
	C1108.747925,1014.846619 1111.310913,1016.335815 1111.132690,1005.580444 
	C1110.980835,996.420288 1111.239136,987.252502 1111.038208,978.094177 
	C1110.952637,974.196289 1112.280396,972.489380 1116.233154,972.930481 
	C1117.714233,973.095764 1119.247192,973.108521 1120.724731,972.929260 
	C1123.955811,972.537170 1125.448486,973.852539 1124.773193,978.803833 
	C1130.400513,971.885315 1136.915283,970.835327 1143.537598,972.395142 
	C1146.177856,973.017029 1148.204712,976.242249 1150.673096,978.640076 
z"/>
<path fill="#FBFEFC" opacity="1.000000" stroke="none" 
	d="
M989.765991,1015.029297 
	C987.638733,1015.035461 985.969727,1014.958801 984.310730,1015.054932 
	C981.408569,1015.223022 978.991211,1014.951294 979.731567,1012.440552 
	C975.481384,1013.581177 970.967468,1015.473938 966.324768,1015.874756 
	C959.783081,1016.439270 955.302734,1012.533081 954.142639,1006.602478 
	C952.768921,999.579224 956.037659,992.876770 962.293335,990.861633 
	C966.363159,989.550537 970.690735,989.060242 974.849792,987.994934 
	C976.542664,987.561340 978.094849,986.578430 979.711060,985.845459 
	C977.890015,984.227295 976.035645,981.212769 974.254333,981.255371 
	C969.102295,981.378540 963.979675,982.731750 958.692566,983.627930 
	C956.474609,977.275574 957.341431,974.681519 964.288269,973.208740 
	C972.487122,971.470703 981.415833,969.099365 987.983765,976.752014 
	C990.584290,979.782166 992.305298,984.315552 992.695862,988.332886 
	C993.433289,995.918274 993.040161,1003.629333 992.801331,1011.278320 
	C992.761597,1012.552490 991.126526,1013.776855 989.765991,1015.029297 
M972.810913,996.064209 
	C972.013062,996.290283 971.222961,996.549438 970.416138,996.736816 
	C967.012573,997.527710 965.201111,1000.241882 966.491394,1002.942932 
	C967.412964,1004.872131 970.772766,1006.697205 973.050964,1006.705017 
	C978.391663,1006.723328 981.062012,1001.107971 978.936279,995.174805 
	C978.175781,995.327332 977.387817,995.514771 976.589905,995.637878 
	C975.606812,995.789490 974.615479,995.887451 972.810913,996.064209 
z"/>
<path fill="#FCFEFD" opacity="1.000000" stroke="none" 
	d="
M836.051636,984.999512 
	C836.051697,991.445007 836.051697,997.390625 836.051697,1004.052551 
	C842.355774,1004.052551 848.130676,1004.325684 853.866638,1003.970459 
	C858.893799,1003.658997 857.953003,1006.908997 858.074341,1009.807312 
	C858.201477,1012.842896 858.266052,1015.279419 853.851196,1015.132385 
	C844.879333,1014.833618 835.888916,1014.945129 826.909607,1015.094971 
	C823.850525,1015.145935 822.887085,1014.073303 822.906738,1011.050476 
	C823.017334,994.085510 823.031860,977.118958 822.901123,960.154297 
	C822.875793,956.867554 823.960938,955.822571 827.205566,955.900940 
	C837.796692,956.157043 835.890503,954.908997 836.032654,964.540222 
	C836.130859,971.191956 836.051575,977.846375 836.051636,984.999512 
z"/>
<path fill="#FBFEFC" opacity="1.000000" stroke="none" 
	d="
M1018.995605,963.421448 
	C1018.996338,972.461487 1018.996338,972.461487 1027.084839,973.277649 
	C1030.455933,981.376160 1030.068115,981.913879 1019.098022,983.429871 
	C1019.098022,989.388794 1018.581848,995.537170 1019.273682,1001.546387 
	C1019.760986,1005.778748 1023.360413,1006.772217 1027.261230,1005.351929 
	C1030.502563,1013.101135 1028.651733,1015.998230 1020.633911,1016.037903 
	C1009.572815,1016.092712 1006.017029,1012.569275 1005.962769,1001.443054 
	C1005.933716,995.491089 1005.957581,989.538879 1005.957581,983.737061 
	C998.323364,981.902832 998.323364,981.902832 999.480408,973.375793 
	C1005.147888,973.857300 1006.801392,970.753418 1006.083374,965.513977 
	C1005.979919,964.759216 1007.047791,963.335571 1007.861389,963.054565 
	C1010.832275,962.028381 1013.902100,961.226135 1016.994507,960.676025 
	C1017.507690,960.584839 1018.319824,962.174133 1018.995605,963.421448 
z"/>
<path fill="#FBFEFC" opacity="1.000000" stroke="none" 
	d="
M948.951294,1009.845703 
	C948.245972,1011.798706 947.954773,1014.056152 946.771362,1014.717773 
	C937.819580,1019.721802 922.253540,1015.349976 917.063599,1006.529114 
	C912.660339,999.045288 912.664917,991.081177 916.429626,983.616028 
	C920.373047,975.796570 927.041199,971.399719 936.269348,971.943359 
	C937.431824,972.011841 938.601868,971.943298 939.768311,971.953918 
	C949.181641,972.039612 950.652222,974.074951 948.054382,984.062134 
	C941.054260,981.427307 934.035828,980.010620 929.129517,987.733215 
	C926.737976,991.497559 927.413330,999.298279 930.369141,1002.311646 
	C935.886292,1007.936523 942.078308,1006.124573 948.952271,1003.110229 
	C948.952271,1005.570190 948.952271,1007.490601 948.951294,1009.845703 
z"/>
<path fill="#FBFEFC" opacity="1.000000" stroke="none" 
	d="
M761.222290,971.231079 
	C756.304016,975.693726 751.639282,979.907104 746.591614,984.466370 
	C752.823425,990.131775 758.629944,995.465698 764.501465,1000.727234 
	C767.831482,1003.711304 771.627991,1006.271362 774.483459,1009.641724 
	C775.667847,1011.039612 775.834656,1014.692627 774.804688,1016.134705 
	C773.975220,1017.296021 769.764038,1017.706604 768.569092,1016.682190 
	C757.745239,1007.402893 747.208923,997.784607 736.699280,988.144653 
	C734.078552,985.740784 734.028687,982.813416 736.765442,980.354553 
	C746.998779,971.160278 757.321777,962.065857 767.565735,952.883240 
	C770.024292,950.679382 772.598328,949.901001 774.937744,952.583435 
	C777.313293,955.307251 775.948181,957.786377 773.602051,959.910583 
	C769.544739,963.584167 765.516296,967.289734 761.222290,971.231079 
z"/>
<path fill="#FBFEFC" opacity="1.000000" stroke="none" 
	d="
M1039.209595,1015.032104 
	C1037.807373,1013.815918 1036.080322,1012.619080 1036.058838,1011.392456 
	C1035.854614,999.733337 1035.989136,988.068848 1035.904419,976.406738 
	C1035.885376,973.779297 1036.943848,973.046143 1039.454834,972.911194 
	C1048.974121,972.399475 1048.969849,972.314636 1048.971558,981.891479 
	C1048.973145,990.888428 1048.624512,999.904236 1049.108154,1008.875183 
	C1049.392456,1014.151428 1047.593140,1015.839355 1042.671509,1015.058411 
	C1041.696533,1014.903687 1040.675659,1015.037170 1039.209595,1015.032104 
z"/>
<path fill="#FBFEFC" opacity="1.000000" stroke="none" 
	d="
M1045.776123,953.103027 
	C1049.300537,955.198730 1050.716919,957.941772 1049.553833,961.633606 
	C1048.512085,964.939758 1046.078857,966.708374 1042.733521,965.907593 
	C1040.188477,965.298279 1036.966919,964.299133 1035.739868,962.386780 
	C1034.704224,960.772766 1035.225464,956.432190 1036.624512,955.377930 
	C1038.873535,953.683105 1042.414551,953.702942 1045.776123,953.103027 
z"/>
<path fill="#FCFEFD" opacity="1.000000" stroke="none" 
	d="
M1458.360352,1184.395752 
	C1445.457153,1194.808228 1429.692139,1196.324707 1416.109863,1188.674805 
	C1403.447144,1181.542603 1396.052368,1166.629395 1398.109863,1152.373535 
	C1400.308960,1137.135742 1411.038086,1125.197876 1425.755981,1121.612671 
	C1441.540649,1117.767578 1458.265991,1125.162476 1466.170654,1139.481079 
	C1474.393188,1154.375122 1471.532227,1171.318604 1458.360352,1184.395752 
z"/>
<path fill="#FCFEFD" opacity="1.000000" stroke="none" 
	d="
M778.580811,1175.823364 
	C767.526428,1180.304443 759.087097,1175.607422 756.915955,1164.180542 
	C755.587097,1157.186768 756.166504,1150.456421 760.739502,1144.786255 
	C767.529480,1136.367188 779.569214,1138.083740 784.079590,1147.887817 
	C788.585938,1157.683228 786.292664,1170.010010 778.580811,1175.823364 
z"/>
<path fill="#A3E3FF" opacity="1.000000" stroke="none" 
	d="
M885.843384,981.990784 
	C892.590454,983.334778 895.951416,988.756348 894.830017,995.828491 
	C893.574463,1003.746582 890.264832,1006.721191 883.539490,1005.961304 
	C882.885132,1005.887329 882.193665,1005.852173 881.596375,1005.609619 
	C877.167908,1003.811340 874.812500,997.254517 876.075317,990.353149 
	C877.052734,985.011597 880.067322,982.316406 885.843384,981.990784 
z"/>
<path fill="#A3E3FF" opacity="1.000000" stroke="none" 
	d="
M1089.903076,994.777771 
	C1087.716553,1004.324524 1085.275635,1006.657837 1078.603271,1005.983398 
	C1078.107178,1005.933228 1077.589355,1005.956970 1077.118286,1005.820251 
	C1071.888672,1004.301941 1069.208130,996.733032 1071.170532,989.073730 
	C1072.446777,984.092407 1077.568970,980.995300 1082.687256,982.110474 
	C1087.287231,983.112610 1089.643433,987.105469 1089.903076,994.777771 
z"/>
<path fill="#A3E3FF" opacity="1.000000" stroke="none" 
	d="
M973.219299,996.036377 
	C974.615479,995.887451 975.606812,995.789490 976.589905,995.637878 
	C977.387817,995.514771 978.175781,995.327332 978.936279,995.174805 
	C981.062012,1001.107971 978.391663,1006.723328 973.050964,1006.705017 
	C970.772766,1006.697205 967.412964,1004.872131 966.491394,1002.942932 
	C965.201111,1000.241882 967.012573,997.527710 970.416138,996.736816 
	C971.222961,996.549438 972.013062,996.290283 973.219299,996.036377 
z"/>
</svg>